<?xml version="1.0" encoding="UTF-8"?>
<svg version="1.1" xmlns="http://www.w3.org/2000/svg" width="1024" height="1024">
<path d="M0 0 C337.92 0 675.84 0 1024 0 C1024 337.92 1024 675.84 1024 1024 C686.08 1024 348.16 1024 0 1024 C0 686.08 0 348.16 0 0 Z " fill="#FEFEFE" transform="translate(0,0)"/>
<path d="M0 0 C0.75506836 0.23299805 1.51013672 0.46599609 2.28808594 0.70605469 C17.2241107 5.33237254 32.04983348 10.91778228 46 18 C46.05173325 25.76567658 46.08615377 33.53130708 46.10986328 41.29711914 C46.11861887 43.92578541 46.13330266 46.55421725 46.15087891 49.18286133 C46.26826019 67.22160275 45.68684393 85.03682789 44 103 C43.92656372 103.79002411 43.85312744 104.58004822 43.77746582 105.39401245 C43.3649122 109.71096814 42.86915857 114.01190798 42.3125 118.3125 C42.14951416 119.57739258 41.98652832 120.84228516 41.81860352 122.14550781 C39.86284797 136.32364072 36.59455389 150.15446753 33 164 C32.73566162 165.0219043 32.47132324 166.04380859 32.19897461 167.09667969 C30.95577304 171.78857212 29.65019032 176.29853741 27.6875 180.75 C26.31475958 183.91134044 24.97806359 187.0583814 23.765625 190.28515625 C17.08265255 208.03434484 8.26830148 224.67784202 -3.71582031 239.40576172 C-4.81116989 240.76557783 -5.86002634 242.1626282 -6.8984375 243.56640625 C-17.02123543 257.10164059 -30.10949507 269.41359519 -44 279 C-44.67498535 279.47099121 -45.3499707 279.94198242 -46.04541016 280.42724609 C-58.97585586 289.4016837 -72.25495253 297.53113029 -86.5625 304.125 C-87.20525879 304.43284424 -87.84801758 304.74068848 -88.51025391 305.05786133 C-93.09938501 307.08381822 -96.16769209 307.23780594 -101 306 C-103.5357178 304.93159525 -105.89033718 303.83942781 -108.3125 302.5625 C-108.99183594 302.21268066 -109.67117188 301.86286133 -110.37109375 301.50244141 C-112.58930173 300.35048567 -114.79579287 299.1785104 -117 298 C-117.78036621 297.58443848 -118.56073242 297.16887695 -119.36474609 296.74072266 C-121.74955285 295.46354666 -124.12633813 294.17276012 -126.5 292.875 C-127.22872314 292.47998291 -127.95744629 292.08496582 -128.70825195 291.67797852 C-133.80398797 288.84843812 -138.42005248 285.60139211 -143 282 C-141.24194344 278.14956629 -139.35151778 276.53016453 -135.875 274.0625 C-125.16894061 266.29555379 -114.90632088 257.91412748 -105.15625 248.9765625 C-103.12985179 247.1190308 -101.07481371 245.30311191 -99 243.5 C-90.82396299 236.36184526 -82.89021049 229.0550182 -75.23071289 221.36108398 C-73.80662508 219.93160283 -72.37721956 218.50759489 -70.94726562 217.08398438 C-65.7550305 211.88451268 -60.7540782 206.60199842 -56 201 C-55.11131826 199.97860845 -54.2220349 198.9577399 -53.33203125 197.9375 C-32.04657415 173.12096707 -13.96029993 145.64584868 0.3125 116.25 C0.75834442 115.33476059 0.75834442 115.33476059 1.2131958 114.40103149 C4.87161986 106.86053259 8.10948293 99.35747628 10.84838867 91.44042969 C11.22842041 90.63508789 11.60845215 89.82974609 12 89 C15 88 15 88 17.17651367 88.89624023 C17.99869385 89.36231689 18.82087402 89.82839355 19.66796875 90.30859375 C20.56064453 90.80810547 21.45332031 91.30761719 22.37304688 91.82226562 C23.30181641 92.35529297 24.23058594 92.88832031 25.1875 93.4375 C26.12787109 93.96666016 27.06824219 94.49582031 28.03710938 95.04101562 C30.3633327 96.35173029 32.68382345 97.67163717 35 99 C28.34428731 73.8242626 28.34428731 73.8242626 21.06152344 48.82617188 C18.13523947 39.285223 15.57987739 29.63928467 13 20 C10.01068337 21.43463359 7.22738144 23.05777621 4.4296875 24.8359375 C3.54289307 25.39917725 2.65609863 25.96241699 1.74243164 26.54272461 C0.7961792 27.14737549 -0.15007324 27.75202637 -1.125 28.375 C-2.11056885 29.00349854 -3.0961377 29.63199707 -4.11157227 30.27954102 C-10.81332057 34.56690756 -17.46034561 38.92804589 -24.06298828 43.36621094 C-31.50659179 48.36413036 -39.02913769 53.23959536 -46.56225586 58.10131836 C-47.50077393 58.70983643 -48.43929199 59.31835449 -49.40625 59.9453125 C-50.24478516 60.48687988 -51.08332031 61.02844727 -51.94726562 61.58642578 C-54.09452351 62.97363338 -54.09452351 62.97363338 -56 65 C-48.08 66.65 -40.16 68.3 -32 70 C-32.71671208 75.73369662 -33.54737247 80.51633116 -35.375 85.875 C-35.76365234 87.01787476 -35.76365234 87.01787476 -36.16015625 88.18383789 C-58.72239521 152.69933511 -102.01795793 214.41540238 -154 259 C-155.50127326 260.31104343 -157.00130834 261.62350626 -158.5 262.9375 C-159.66666667 263.95833333 -160.83333333 264.97916667 -162 266 C-166.29378813 264.07712966 -168.77153701 261.37521131 -172 258 C-170.88559348 254.65678045 -170.02527657 253.93980381 -167.375 251.75 C-161.36444511 246.63942124 -156.00997691 241.12159538 -150.8671875 235.14453125 C-148.86846355 232.84892571 -146.81054771 230.615204 -144.75 228.375 C-139.70550697 222.77663527 -135.08332928 216.89330355 -130.48876953 210.92578125 C-128.97099409 208.96247972 -127.43774727 207.01203637 -125.90234375 205.0625 C-112.09611918 187.42485263 -100.27592625 168.90079269 -90 149 C-89.56179932 148.15655029 -89.12359863 147.31310059 -88.67211914 146.4440918 C-85.95638237 141.13069377 -83.59622903 135.7962913 -81.5625 130.1875 C-81.27173584 129.39432373 -80.98097168 128.60114746 -80.68139648 127.78393555 C-77.29460604 118.33821651 -74.61783704 108.68207249 -72 99 C-72.89460937 99.60328125 -73.78921875 100.2065625 -74.7109375 100.828125 C-89.09359438 110.39327063 -103.42317783 116.36780868 -121.078125 113.5 C-132.03325197 111.02807392 -140.4474496 106.168442 -149 99 C-148.59007812 100.17175781 -148.18015625 101.34351563 -147.7578125 102.55078125 C-147.21312808 104.13787895 -146.66888087 105.72512675 -146.125 107.3125 C-145.85558594 108.07884766 -145.58617187 108.84519531 -145.30859375 109.63476562 C-138.72788411 128.97563176 -138.66648489 150.62567344 -145 170 C-145.37141751 171.30703434 -145.73719408 172.61568325 -146.09765625 173.92578125 C-153.25558916 199.31630172 -168.10183496 221.27991157 -184 242 C-187.1827991 240.51127139 -188.7880313 239.31795304 -190.75 236.375 C-191.17796875 235.74335938 -191.6059375 235.11171875 -192.046875 234.4609375 C-192.36140625 233.97882813 -192.6759375 233.49671875 -193 233 C-190.63679411 228.66745587 -188.23530896 224.37129685 -185.6875 220.14453125 C-177.49777758 206.53567569 -170.93905207 193.24321068 -166.56298828 177.94775391 C-166.01028763 176.03559182 -165.42534181 174.1328446 -164.83984375 172.23046875 C-162.79766103 165.47443057 -161.32544492 159.06215478 -161 152 C-161.70125 152.47050781 -162.4025 152.94101562 -163.125 153.42578125 C-176.09376802 161.93653526 -187.61463321 164.47313592 -203 163 C-211.76067667 160.83890387 -223.26661632 155.18770539 -229 148 C-229.84375 144.98950195 -229.84375 144.98950195 -230.5 141.23828125 C-230.62100067 140.55360779 -230.74200134 139.86893433 -230.8666687 139.16351318 C-231.2616196 136.88235924 -231.63356131 134.5984005 -232 132.3125 C-232.12973206 131.51447968 -232.25946411 130.71645935 -232.39312744 129.89425659 C-238.3099947 93.04706824 -238.4313435 56.24095234 -238 19 C-220.84389164 10.26019621 -220.84389164 10.26019621 -211.9375 6.8125 C-211.09155273 6.48137207 -210.24560547 6.15024414 -209.37402344 5.80908203 C-206.92118963 4.85829572 -204.46300438 3.92408218 -202 3 C-201.35240723 2.75652832 -200.70481445 2.51305664 -200.03759766 2.26220703 C-195.74039651 0.67509964 -191.39464386 -0.71264934 -187 -2 C-186.22462891 -2.22896973 -185.44925781 -2.45793945 -184.65039062 -2.69384766 C-170.86417986 -6.66493335 -156.91020506 -9.14570731 -142.75 -11.3125 C-141.90961182 -11.44155731 -141.06922363 -11.57061462 -140.20336914 -11.70358276 C-93.17242184 -18.86014133 -45.36651832 -14.34095351 0 0 Z " fill="#80B059" transform="translate(608,248)"/>
<path d="M0 0 C0 28.38 0 56.76 0 86 C-3.3 84.02 -6.6 82.04 -10 80 C-15.00401044 78.7990375 -19.73207207 78.92974187 -24.43359375 81.1484375 C-28.6151557 84.0486768 -31.42378068 87.07431463 -33 92 C-33.73643177 98.41747689 -32.64282207 103.58721919 -29 109 C-25.19981163 112.76516359 -21.31632562 114.3007732 -16 114.5625 C-9.65008625 114.23962303 -5.16821055 111.4454737 0 108 C0 113.94 0 119.88 0 126 C-15.58372693 129.66675928 -30.13590898 128.49880051 -44 120 C-47.09885835 117.77861272 -50.07825353 115.44890344 -53 113 C-52.59007812 114.17175781 -52.18015625 115.34351563 -51.7578125 116.55078125 C-51.21312808 118.13787895 -50.66888087 119.72512675 -50.125 121.3125 C-49.85558594 122.07884766 -49.58617187 122.84519531 -49.30859375 123.63476562 C-42.72788411 142.97563176 -42.66648489 164.62567344 -49 184 C-49.37141751 185.30703434 -49.73719408 186.61568325 -50.09765625 187.92578125 C-57.25558916 213.31630172 -72.10183496 235.27991157 -88 256 C-91.1827991 254.51127139 -92.7880313 253.31795304 -94.75 250.375 C-95.17796875 249.74335938 -95.6059375 249.11171875 -96.046875 248.4609375 C-96.36140625 247.97882813 -96.6759375 247.49671875 -97 247 C-94.63679411 242.66745587 -92.23530896 238.37129685 -89.6875 234.14453125 C-81.49777758 220.53567569 -74.93905207 207.24321068 -70.56298828 191.94775391 C-70.01028763 190.03559182 -69.42534181 188.1328446 -68.83984375 186.23046875 C-66.79766103 179.47443057 -65.32544492 173.06215478 -65 166 C-65.70125 166.47050781 -66.4025 166.94101562 -67.125 167.42578125 C-80.09376802 175.93653526 -91.61463321 178.47313592 -107 177 C-115.76067667 174.83890387 -127.26661632 169.18770539 -133 162 C-133.84375 158.98950195 -133.84375 158.98950195 -134.5 155.23828125 C-134.62100067 154.55360779 -134.74200134 153.86893433 -134.8666687 153.16351318 C-135.2616196 150.88235924 -135.63356131 148.5984005 -136 146.3125 C-136.12973206 145.51447968 -136.25946411 144.71645935 -136.39312744 143.89425659 C-142.3099947 107.04706824 -142.4313435 70.24095234 -142 33 C-124.84389164 24.26019621 -124.84389164 24.26019621 -115.9375 20.8125 C-115.09155273 20.48137207 -114.24560547 20.15024414 -113.37402344 19.80908203 C-110.92118963 18.85829572 -108.46300438 17.92408218 -106 17 C-105.35240723 16.75652832 -104.70481445 16.51305664 -104.03759766 16.26220703 C-99.74039651 14.67509964 -95.39464386 13.28735066 -91 12 C-90.22462891 11.77103027 -89.44925781 11.54206055 -88.65039062 11.30615234 C-76.02087875 7.66825106 -63.19516172 5.14171839 -50.23413086 3.03121948 C-48.62506757 2.76809612 -47.01705516 2.49842877 -45.41040039 2.22097778 C-30.01049705 -0.4088374 -15.97617679 0 0 0 Z " fill="#2F567F" transform="translate(512,234)"/>
<path d="M0 0 C0.54527344 0.37511719 1.09054687 0.75023437 1.65234375 1.13671875 C16.07317602 10.9231639 29.38304778 16.95730687 47.1796875 14.57421875 C57.96659044 12.42475032 67.42589403 7.86834193 76 1 C76.66 1 77.32 1 78 1 C76.78309025 8.95739536 74.78499313 16.38851354 72.1875 24 C71.6915332 25.50433594 71.6915332 25.50433594 71.18554688 27.0390625 C58.27213351 65.40751527 33.10911099 98.64248706 7 129 C6.42121094 129.680625 5.84242188 130.36125 5.24609375 131.0625 C-3.17780367 140.85871153 -11.87973258 150.92264371 -22 159 C-27.23435005 154.72706118 -31.67106815 150.18419194 -36 145 C-35.1875 143.91666667 -34.375 142.83333333 -33.5625 141.75 C-33.00691406 141.00234375 -32.45132812 140.2546875 -31.87890625 139.484375 C-30.64239353 137.84940184 -29.37971476 136.23383991 -28.08984375 134.640625 C-19.83811083 124.2141363 -13.42713865 112.60700623 -7 101 C-6.60474121 100.2894043 -6.20948242 99.57880859 -5.80224609 98.84667969 C7.60446632 74.21257531 12.46937138 42.92813676 5.15625 15.75 C3.89037154 11.64444823 2.50221065 7.66643589 0.734375 3.75 C0 2 0 2 0 0 Z " fill="#C8C8C7" transform="translate(458,346)"/>
<path d="M0 0 C1.31653564 0.02139038 1.31653564 0.02139038 2.65966797 0.04321289 C13.74997603 0.40358117 20.92186439 3.35780224 28.9609375 11.12890625 C36.72541398 19.63619366 38.72721352 28.03327349 38.43359375 39.453125 C37.90573573 48.8362942 33.84486925 56.97067525 27.125 63.5 C23.92687472 65.79634265 20.62813233 67.71029253 17.125 69.5 C16.48949219 69.86222656 15.85398437 70.22445312 15.19921875 70.59765625 C6.64470194 74.31911272 -5.75827729 73.72257605 -14.43359375 70.6640625 C-24.62196838 65.80624547 -31.49653455 58.77452791 -35.75 48.375 C-38.37348552 39.40487884 -38.15202051 29.18109568 -34.1328125 20.70703125 C-26.70534178 7.67435748 -15.25480753 -0.34288734 0 0 Z " fill="#29416A" transform="translate(610.875,601.5)"/>
<path d="M0 0 C5.28 0 10.56 0 16 0 C18.62877271 6.69831508 20.78723537 13.5146064 22.90673828 20.3894043 C23.49583555 22.29900068 24.08969832 24.2071248 24.68359375 26.11523438 C31 46.52126736 31 46.52126736 31 52 C31.66 52 32.32 52 33 52 C33.18369141 50.49373047 33.18369141 50.49373047 33.37109375 48.95703125 C33.92877708 45.08234443 34.93201945 41.43916259 36.0625 37.6875 C36.27293945 36.98616943 36.48337891 36.28483887 36.70019531 35.56225586 C37.46031095 33.03949513 38.22990918 30.51973362 39 28 C39.4957251 26.36949707 39.4957251 26.36949707 40.00146484 24.70605469 C41.08105926 21.15720132 42.16456906 17.60957239 43.25 14.0625 C43.60328369 12.90645264 43.95656738 11.75040527 44.32055664 10.55932617 C44.81930298 8.93861206 44.81930298 8.93861206 45.328125 7.28515625 C45.6262207 6.31457275 45.92431641 5.34398926 46.23144531 4.34399414 C47 2 47 2 48 0 C52.95 0 57.9 0 63 0 C68.60801168 16.50357722 73.38132317 33.19587793 78 50 C79.79006434 47.3149035 80.57468781 45.54257896 81.48046875 42.51953125 C81.75431396 41.61340088 82.02815918 40.70727051 82.31030273 39.77368164 C82.59977783 38.7964917 82.88925293 37.81930176 83.1875 36.8125 C83.48922119 35.80759521 83.79094238 34.80269043 84.10180664 33.76733398 C87.46465776 22.53032051 90.73976296 11.26714137 94 0 C99.28 0 104.56 0 110 0 C107.71619966 7.81936936 105.18180971 15.5430778 102.58511353 23.26296997 C97.24979664 39.13134746 92.08275577 55.0489319 87 71 C81.39 71 75.78 71 70 71 C68.32159542 65.48830627 66.64947507 59.97475791 64.98291016 54.45947266 C64.41623446 52.58721744 63.84790619 50.71546152 63.27783203 48.84423828 C62.45420219 46.13967445 61.63672142 43.43331361 60.8203125 40.7265625 C60.56814972 39.90322418 60.31598694 39.07988586 60.05618286 38.2315979 C58.34909763 32.54310387 57.07083118 26.84094123 56 21 C55.34 21 54.68 21 54 21 C53.84241211 22.42820068 53.84241211 22.42820068 53.68164062 23.88525391 C52.99123258 28.68816443 51.54393775 33.21614891 50.09375 37.8359375 C49.80898804 38.75589508 49.52422607 39.67585266 49.23083496 40.62368774 C48.63153109 42.55574278 48.02963806 44.48699639 47.42529297 46.41748047 C46.49705705 49.38440657 45.57800756 52.35406562 44.66015625 55.32421875 C44.07605804 57.20329207 43.49144109 59.08220424 42.90625 60.9609375 C42.63018921 61.85251556 42.35412842 62.74409363 42.06970215 63.66268921 C41.8127356 64.48089142 41.55576904 65.29909363 41.29101562 66.14208984 C41.06530884 66.86488129 40.83960205 67.58767273 40.60705566 68.33236694 C40 70 40 70 39 71 C36.30345146 71.07319621 33.63308542 71.09242537 30.9375 71.0625 C30.17888672 71.05798828 29.42027344 71.05347656 28.63867188 71.04882812 C26.75908129 71.0370068 24.87953101 71.01907078 23 71 C22.4837972 69.4513916 21.96759595 67.90278269 21.45140076 66.35417175 C20.98231901 64.94694727 20.51321203 63.53973119 20.04408264 62.13252258 C18.71728519 58.15250612 17.39095263 54.17233566 16.06542969 50.19189453 C13.5661958 42.68837878 11.064837 35.18563822 8.54573059 27.68876648 C7.5225936 24.64356709 6.50153975 21.59767107 5.48062134 18.55172729 C4.99388349 17.1015978 4.50607143 15.65182843 4.0171814 14.2024231 C3.33690036 12.1853158 2.66024719 10.16702553 1.984375 8.1484375 C1.59991211 7.00552246 1.21544922 5.86260742 0.81933594 4.68505859 C0 2 0 2 0 0 Z " fill="#2B446B" transform="translate(653,602)"/>
<path d="M0 0 C42.54069767 0 42.54069767 0 51 6 C56.25669681 11.74701778 58.19407897 15.93544707 58.25 23.6875 C58.270625 24.38294922 58.29125 25.07839844 58.3125 25.79492188 C58.36280127 32.52900406 56.49891706 37.77077493 52 42.9375 C51.505 43.52402344 51.01 44.11054687 50.5 44.71484375 C49 46 49 46 46 46 C48.75805683 51.72876757 51.82001245 57.08811535 55.25 62.4375 C60 69.87605337 60 69.87605337 60 71 C45.80750437 72.36531134 45.80750437 72.36531134 41.8125 69.34765625 C40.27454313 66.96967403 39.14130056 64.59075228 38 62 C36.89295427 60.17647841 35.76808665 58.36364801 34.625 56.5625 C32 52.26153846 32 52.26153846 32 50 C26.39 50 20.78 50 15 50 C15 56.93 15 63.86 15 71 C10.05 71 5.1 71 0 71 C0 47.57 0 24.14 0 0 Z " fill="#2A3F66" transform="translate(347,602)"/>
<path d="M0 0 C0.66644531 0.44730469 1.33289063 0.89460938 2.01953125 1.35546875 C16.82523608 11.06718283 29.41967675 15.0322957 47.0546875 12.57421875 C53.97993242 10.72370249 59.95074034 6.73292922 66 3 C66.66 2.67 67.32 2.34 68 2 C67.57822851 10.01858564 66.08573166 17.26848364 63.75 24.9375 C63.43281006 25.99582031 63.11562012 27.05414063 62.78881836 28.14453125 C60.60593669 35.30478093 58.25120475 42.24606463 55 49 C54.72075684 49.59119629 54.44151367 50.18239258 54.15380859 50.79150391 C48.85512158 61.96329932 42.86171775 72.70742337 36 83 C31.65466944 81.55155648 30.46877483 78.23431101 28.3125 74.4375 C27.87115723 73.67026611 27.42981445 72.90303223 26.97509766 72.11254883 C14.36993962 49.97283652 3.03242313 25.54903625 0 0 Z " fill="#D0D0D2" transform="translate(380,397)"/>
<path d="M0 0 C55.00019892 -0.0457326 110.00039593 -0.08099638 165.00061011 -0.10213066 C171.48722317 -0.10463221 177.97383621 -0.10722084 184.46044922 -0.10986328 C185.75187018 -0.1103879 187.04329114 -0.11091252 188.37384607 -0.11145304 C209.31111341 -0.12016639 230.24836982 -0.13594145 251.18563066 -0.15430559 C272.65361522 -0.17297882 294.12159403 -0.18411125 315.58958638 -0.18817699 C328.84687022 -0.19092741 342.10412318 -0.19962839 355.36139752 -0.21583293 C364.44038416 -0.22636804 373.51935473 -0.22960855 382.59834705 -0.22700275 C387.84405628 -0.22571602 393.08971136 -0.22775068 398.33541107 -0.23841095 C403.13060723 -0.24808509 407.9257124 -0.24867326 412.72091259 -0.24179779 C414.46252663 -0.24094701 416.20414617 -0.24353336 417.94574927 -0.24976636 C420.29968007 -0.25770602 422.65327542 -0.25351979 425.00720024 -0.24609566 C426.31875426 -0.2468551 427.63030828 -0.24761454 428.98160636 -0.24839699 C432 0 432 0 434 2 C433.67 3.32 433.34 4.64 433 6 C290.11 6 147.22 6 0 6 C0 4.02 0 2.04 0 0 Z " fill="#C6C6C6" transform="translate(266,695)"/>
<path d="M0 0 C4.62 0 9.24 0 14 0 C14 9.57 14 19.14 14 29 C25.22 29 36.44 29 48 29 C48 19.43 48 9.86 48 0 C52.62 0 57.24 0 62 0 C62 23.1 62 46.2 62 70 C57.38 70 52.76 70 48 70 C48 60.43 48 50.86 48 41 C36.78 41 25.56 41 14 41 C14 50.57 14 60.14 14 70 C9.38 70 4.76 70 0 70 C0 46.9 0 23.8 0 0 Z " fill="#253960" transform="translate(267,603)"/>
<path d="M0 0 C17.49 0 34.98 0 53 0 C53 4.29 53 8.58 53 13 C40.46 13 27.92 13 15 13 C15 19.27 15 25.54 15 32 C25.89 32 36.78 32 48 32 C48 35.96 48 39.92 48 44 C37.11 44 26.22 44 15 44 C15 52.91 15 61.82 15 71 C10.05 71 5.1 71 0 71 C0 47.57 0 24.14 0 0 Z " fill="#30476E" transform="translate(456,602)"/>
<path d="M0 0 C0.33 0 0.66 0 1 0 C1.19973733 4.51636837 1.34382276 9.03031378 1.43945312 13.54980469 C1.47936338 15.08248735 1.53371729 16.61487178 1.60351562 18.14648438 C2.23979413 32.48146484 2.23979413 32.48146484 -2.76171875 38.734375 C-4.14742143 40.18263209 -5.55724908 41.60856538 -7 43 C-7.77988281 43.97710937 -8.55976563 44.95421875 -9.36328125 45.9609375 C-14.48632549 52.30570973 -19.87624196 58.36361505 -25.4375 64.32421875 C-27.13963771 66.14976144 -28.83553984 67.98098621 -30.53125 69.8125 C-39.01632083 78.96161985 -47.51962783 87.86875771 -57 96 C-58.50127326 97.31104343 -60.00130834 98.62350626 -61.5 99.9375 C-62.66666667 100.95833333 -63.83333333 101.97916667 -65 103 C-69.29378813 101.07712966 -71.77153701 98.37521131 -75 95 C-73.88559348 91.65678045 -73.02527657 90.93980381 -70.375 88.75 C-64.36444511 83.63942124 -59.00997691 78.12159538 -53.8671875 72.14453125 C-51.86846355 69.84892571 -49.81054771 67.615204 -47.75 65.375 C-42.70550697 59.77663527 -38.08332928 53.89330355 -33.48876953 47.92578125 C-31.97099409 45.96247972 -30.43774727 44.01203637 -28.90234375 42.0625 C-18.75606248 29.09263587 -9.46956469 15.50243099 -0.96289062 1.40063477 C-0.64513672 0.93842529 -0.32738281 0.47621582 0 0 Z " fill="#29395F" transform="translate(511,411)"/>
<path d="M0 0 C5.71466748 2.60161905 9.90187794 7.07369607 12.6484375 12.6796875 C14.68776406 19.02013915 14.67964704 26.77402956 11.8203125 32.8515625 C8.54406692 38.33119859 3.9127154 43.01217018 -2.31640625 44.90625 C-8.30773135 46.13248171 -14.40871601 46.46010548 -19.8046875 43.2890625 C-25.20523148 39.37449982 -29.42284909 34.75621168 -31.4921875 28.3515625 C-32.39275555 21.03326214 -32.17899894 14.59440236 -28.12890625 8.29296875 C-20.68075416 -0.54171284 -11.23098522 -2.92216857 0 0 Z " fill="#F9FBFB" transform="translate(620.4921875,615.6484375)"/>
<path d="M0 0 C0 21.45 0 42.9 0 65 C-5.93262523 63.02245826 -11.20879416 61.12856596 -16.6875 58.3125 C-17.368125 57.96654785 -18.04875 57.6205957 -18.75 57.26416016 C-28.59640067 52.210801 -38.40810843 47.04428377 -47 40 C-45.48689129 36.09548386 -43.24779166 34.45653877 -39.875 32.0625 C-29.12774232 24.26566558 -18.8503252 15.84502796 -9.05859375 6.87890625 C-1.52182952 0 -1.52182952 0 0 0 Z " fill="#9D9E9F" transform="translate(512,490)"/>
<path d="M0 0 C4.95 0 9.9 0 15 0 C15 19.14 15 38.28 15 58 C26.55 58 38.1 58 50 58 C50 62.29 50 66.58 50 71 C33.5 71 17 71 0 71 C0 47.57 0 24.14 0 0 Z " fill="#2D456D" transform="translate(520,602)"/>
<path d="M0 0 C5.0471412 2.81033998 8.55655519 6.74592411 10.625 12.1484375 C11.81774969 17.79351236 11.08869479 22.07853304 8.125 27.0234375 C4.30465377 32.06665157 0.40664389 34.522178 -5.828125 35.5546875 C-11.31093192 35.89105602 -15.19650678 34.89659633 -19.68359375 31.71484375 C-24.09027962 27.6338252 -26.14890124 22.37174194 -26.75 16.4609375 C-26.65302779 10.59950591 -23.73750393 6.74342187 -19.90625 2.53515625 C-14.347885 -2.30116624 -6.75470296 -2.42191652 0 0 Z " fill="#E7E8E8" transform="translate(504.375,313.8515625)"/>
<path d="M0 0 C4.33493184 2.28271711 7.16158135 5.46808425 9 10 C9.78671167 15.61936904 9.22202478 20.22251498 6 25 C1.41337557 29.2426276 -2.44730335 30.47416859 -8.578125 30.4140625 C-12.97482762 29.66236818 -15.93761139 27.12228863 -19 24 C-21.45982024 20.31026964 -21.58616815 15.94420297 -21.52734375 11.578125 C-20.58343955 6.96348225 -17.47472674 4.01090575 -14 1 C-9.76442825 -1.11778588 -4.58727888 -0.62686953 0 0 Z " fill="#EAEBEA" transform="translate(421,371)"/>
<path d="M0 0 C3.17625 -0.061875 6.3525 -0.12375 9.625 -0.1875 C11.1092749 -0.22846802 11.1092749 -0.22846802 12.62353516 -0.27026367 C17.84756218 -0.31936763 21.49586248 0.04237805 26 3 C29.23867653 6.67050007 29.46918667 10.13748436 29.28125 14.8515625 C28.87746444 17.93603555 28.05927341 19.6661568 26 22 C20.60712688 25.54120624 15.83039275 25.35877733 9.625 25.1875 C4.860625 25.0946875 4.860625 25.0946875 0 25 C0 16.75 0 8.5 0 0 Z " fill="#F8FAFB" transform="translate(362,615)"/>
<path d="M0 0 C1.98 0 3.96 0 6 0 C6.33 0.99 6.66 1.98 7 3 C8.423125 2.938125 8.423125 2.938125 9.875 2.875 C13 3 13 3 15 5 C15.125 8.125 15.125 8.125 15 11 C15.99 11.33 16.98 11.66 18 12 C18 13.98 18 15.96 18 18 C17.01 18.33 16.02 18.66 15 19 C15 21.31 15 23.62 15 26 C12.64561267 27.42944945 11.51967567 28.08661261 8.75 27.625 C7.88375 27.315625 7.88375 27.315625 7 27 C6.67 28.32 6.34 29.64 6 31 C4.02 31 2.04 31 0 31 C-0.66 29.68 -1.32 28.36 -2 27 C-2.94875 27.20625 -3.8975 27.4125 -4.875 27.625 C-5.90625 27.74875 -6.9375 27.8725 -8 28 C-8.66 27.34 -9.32 26.68 -10 26 C-9.625 22.875 -9.625 22.875 -9 20 C-10.32 19.34 -11.64 18.68 -13 18 C-13 16.02 -13 14.04 -13 12 C-11.68 12 -10.36 12 -9 12 C-9.226875 10.906875 -9.45375 9.81375 -9.6875 8.6875 C-10 5 -10 5 -8.9375 3 C-6.08594286 1.52822857 -4.03295907 2.25861001 -1 3 C-0.67 2.01 -0.34 1.02 0 0 Z " fill="#3B577D" transform="translate(723,683)"/>
<path d="M0 0 C1 3 1 3 -0.3359375 6.23046875 C-1.00399858 7.55540572 -1.6846194 8.87405483 -2.375 10.1875 C-2.73932129 10.89438965 -3.10364258 11.6012793 -3.47900391 12.32958984 C-4.63838243 14.56091188 -5.816282 16.78150542 -7 19 C-7.36480469 19.6894873 -7.72960937 20.37897461 -8.10546875 21.08935547 C-13.3612073 30.9580956 -19.30590506 40.05188662 -26 49 C-26.64839844 49.87398438 -27.29679687 50.74796875 -27.96484375 51.6484375 C-29.30028406 53.43949863 -30.6481702 55.22127658 -32 57 C-36.576348 55.06385277 -38.33251105 52.00123342 -41 48 C-39.81873767 45.86569548 -38.63497247 43.7328332 -37.44824219 41.6015625 C-36.5185484 39.93149895 -35.59185091 38.25976188 -34.66894531 36.5859375 C-33.34599956 34.20875403 -31.98897856 31.85383728 -30.625 29.5 C-29.95984375 28.28570312 -29.95984375 28.28570312 -29.28125 27.046875 C-25.86647247 21.23199668 -25.86647247 21.23199668 -21.1484375 19.96875 C-20.10945313 19.9790625 -19.07046875 19.989375 -18 20 C-18.33 20.99 -18.66 21.98 -19 23 C-16.69 23 -14.38 23 -12 23 C-11.01 20.69 -10.02 18.38 -9 16 C-8.34 16 -7.68 16 -7 16 C-6.7525 15.01 -6.505 14.02 -6.25 13 C-5.01851881 8.6588073 -3.25105915 3.25105915 0 0 Z " fill="#283358" transform="translate(456,433)"/>
<path d="M0 0 C9.24 0 18.48 0 28 0 C28 3.96 28 7.92 28 12 C18.76 12 9.52 12 0 12 C0 8.04 0 4.08 0 0 Z " fill="#344B70" transform="translate(416,638)"/>
<path d="M0 0 C0.99 0.33 1.98 0.66 3 1 C3 1.99 3 2.98 3 4 C3.99 4 4.98 4 6 4 C6 4.66 6 5.32 6 6 C4.68 6 3.36 6 2 6 C2.33 8.97 2.66 11.94 3 15 C4.32 15.33 5.64 15.66 7 16 C7 16.66 7 17.32 7 18 C5.00045254 18.04254356 2.99958364 18.04080783 1 18 C0 17 0 17 -0.09765625 14.49609375 C-0.08025391 12.98208984 -0.08025391 12.98208984 -0.0625 11.4375 C-0.05347656 10.42558594 -0.04445313 9.41367187 -0.03515625 8.37109375 C-0.02355469 7.58863281 -0.01195312 6.80617188 0 6 C-1.32 6 -2.64 6 -4 6 C-4.103125 6.86625 -4.20625 7.7325 -4.3125 8.625 C-5.03398414 12.16683123 -6.27123261 14.84312042 -8 18 C-8.99 18 -9.98 18 -11 18 C-12.32 15.03 -13.64 12.06 -15 9 C-15.99 12.3 -16.98 15.6 -18 19 C-19.32 19 -20.64 19 -22 19 C-22.67220351 17.06441401 -23.33758077 15.12645628 -24 13.1875 C-24.37125 12.10855469 -24.7425 11.02960937 -25.125 9.91796875 C-26 7 -26 7 -26 4 C-25.01 4 -24.02 4 -23 4 C-22.34 6.64 -21.68 9.28 -21 12 C-17.75267068 10.37633534 -17.29844864 7.24612161 -16 4 C-15.01 4 -14.02 4 -13 4 C-11.68 6.64 -10.36 9.28 -9 12 C-7.68 9.03 -6.36 6.06 -5 3 C-3.68 3 -2.36 3 -1 3 C-0.67 2.01 -0.34 1.02 0 0 Z " fill="#516279" transform="translate(726,724)"/>
<path d="M0 0 C0.99 0 1.98 0 3 0 C3 6.6 3 13.2 3 20 C-7.2503962 20.61014263 -7.2503962 20.61014263 -10.6875 17.8125 C-12.10366148 14.77786826 -12.67280597 13.2799291 -12 10 C-10.4375 7.6875 -10.4375 7.6875 -8 6 C-4.25 5.75 -4.25 5.75 -1 6 C-0.67 4.02 -0.34 2.04 0 0 Z " fill="#384862" transform="translate(359,722)"/>
<path d="M0 0 C0.99 0 1.98 0 3 0 C3 6.6 3 13.2 3 20 C-7.46375858 20.36930913 -7.46375858 20.36930913 -9.83203125 18.73828125 C-11.8896345 15.67596203 -11.52418121 12.54376029 -11 9 C-9.9375 7 -9.9375 7 -8 6 C-4.3125 5.8125 -4.3125 5.8125 -1 6 C-0.67 4.02 -0.34 2.04 0 0 Z " fill="#384A65" transform="translate(639,722)"/>
<path d="M0 0 C10.46375858 -0.36930913 10.46375858 -0.36930913 12.83203125 1.26171875 C14.88730784 4.32057521 14.53104008 7.45973283 14 11 C12.875 13 12.875 13 11 14 C7.90498792 14.25265405 5.79870027 14.39935013 3 13 C3 14.98 3 16.96 3 19 C2.01 19 1.02 19 0 19 C0 12.73 0 6.46 0 0 Z " fill="#394963" transform="translate(426,728)"/>
<path d="M0 0 C10.46375858 -0.36930913 10.46375858 -0.36930913 12.83203125 1.26171875 C14.8896345 4.32403797 14.52418121 7.45623971 14 11 C12.9375 13 12.9375 13 11 14 C7.3125 14.1875 7.3125 14.1875 4 14 C3.67 15.65 3.34 17.3 3 19 C2.01 19 1.02 19 0 19 C0 12.73 0 6.46 0 0 Z " fill="#414A5F" transform="translate(528,728)"/>
<path d="M0 0 C10.14938489 -0.48330404 10.14938489 -0.48330404 13.75 1.5625 C15.53662547 5.04641968 14.96480532 7.27860804 14 11 C12 13 12 13 9.6171875 13.1953125 C8.71226562 13.17210937 7.80734375 13.14890625 6.875 13.125 C5.50988281 13.09792969 5.50988281 13.09792969 4.1171875 13.0703125 C3.41851562 13.04710937 2.71984375 13.02390625 2 13 C2 14.98 2 16.96 2 19 C1.34 19 0.68 19 0 19 C0 12.73 0 6.46 0 0 Z " fill="#5E6A7D" transform="translate(375,723)"/>
<path d="M0 0 C-1.77213953 4.81009302 -4.07360577 7.60871528 -8.25 10.625 C-11.24674345 13.21309661 -13.25530375 15.93991963 -15.47265625 19.1953125 C-17.16844201 21.19902867 -18.6467313 21.90402204 -21 23 C-22.37073786 24.63604196 -23.70055256 26.30678061 -25 28 C-26.64694485 29.68615782 -28.31126121 31.35570171 -30 33 C-30.66 33.66 -31.32 34.32 -32 35 C-32.99 35.495 -32.99 35.495 -34 36 C-34.33 56.13 -34.66 76.26 -35 97 C-34.34 97.33 -33.68 97.66 -33 98 C-34.485 98.495 -34.485 98.495 -36 99 C-36.27944388 90.58515893 -36.49193604 82.17228959 -36.62174606 73.75393963 C-36.68408885 69.84363883 -36.76844807 65.93653596 -36.90527344 62.02807617 C-37.03677194 58.2476254 -37.10762507 54.47022494 -37.13852692 50.68766212 C-37.16051008 49.25327339 -37.20344564 47.81903106 -37.26876068 46.38596153 C-37.53436368 40.31039606 -37.73637372 34.56071487 -33.45657349 29.79866028 C-30.50221356 26.93496884 -27.27737504 24.48131017 -24 22 C-22.85815968 20.93694286 -21.73413948 19.85343792 -20.64990234 18.73168945 C-18.84466096 16.88811548 -17.035566 15.04887544 -15.22265625 13.21289062 C-13.77699257 11.74207847 -12.33306402 10.26961877 -10.89111328 8.79516602 C-9.4603279 7.33442519 -8.02357144 5.8797775 -6.5859375 4.42578125 C-5.7511084 3.57411377 -4.9162793 2.72244629 -4.05615234 1.8449707 C-2 0 -2 0 0 0 Z " fill="#69985D" transform="translate(548,456)"/>
<path d="M0 0 C0 28.38 0 56.76 0 86 C-2.64 84.35 -5.28 82.7 -8 81 C-6 80 -4 79 -2 78 C-1.67 52.59 -1.34 27.18 -1 1 C-12.69265559 0.97536909 -12.69265559 0.97536909 -24 3 C-24.66 2.67 -25.32 2.34 -26 2 C-26.33 2.66 -26.66 3.32 -27 4 C-27 3.34 -27 2.68 -27 2 C-27.65484375 2.12117187 -28.3096875 2.24234375 -28.984375 2.3671875 C-30.9146053 2.72160832 -32.84566785 3.07151333 -34.77734375 3.41796875 C-36.91754865 3.80450273 -39.05565325 4.20286115 -41.19140625 4.61328125 C-42.22136719 4.80277344 -43.25132812 4.99226562 -44.3125 5.1875 C-45.25738281 5.36667969 -46.20226562 5.54585937 -47.17578125 5.73046875 C-50.30767805 6.02936347 -52.9308581 5.63921567 -56 5 C-56 4.67 -56 4.34 -56 4 C-51.92231259 3.29572326 -47.83745786 2.64492938 -43.75 2 C-42.64914062 1.80921875 -41.54828125 1.6184375 -40.4140625 1.421875 C-26.67222909 -0.69225322 -14.41522586 0 0 0 Z " fill="#3A6F7A" transform="translate(512,234)"/>
<path d="M0 0 C18.92680242 -0.35243759 37.25013276 -0.04577336 56 3 C55.67 3.99 55.34 4.98 55 6 C54.34 5.67 53.68 5.34 53 5 C50.78869208 4.96958909 48.59600097 5.06638366 46.38671875 5.16015625 C44 5 44 5 41.66845703 4.00219727 C38.86254039 2.94837404 36.89696345 2.76813542 33.91796875 2.8046875 C32.98662109 2.81113281 32.05527344 2.81757813 31.09570312 2.82421875 C30.13599609 2.84097656 29.17628906 2.85773438 28.1875 2.875 C27.20845703 2.88402344 26.22941406 2.89304688 25.22070312 2.90234375 C22.81354939 2.92582818 20.40690257 2.9586716 18 3 C17.97687703 13.93496471 17.95908515 24.86992366 17.94818783 35.8049078 C17.9429589 40.88191018 17.93586108 45.95889589 17.92456055 51.03588867 C17.91373201 55.93120552 17.90772324 60.82650629 17.90512276 65.72183418 C17.90326845 67.59382951 17.89964772 69.46582391 17.89426994 71.33781242 C17.88705996 73.95040699 17.88600904 76.56293427 17.88647461 79.17553711 C17.88287933 79.95740387 17.87928406 80.73927063 17.87557983 81.54483032 C17.55716038 85.06522819 17.55716038 85.06522819 19 88 C19.04063832 89.66617115 19.042721 91.33388095 19 93 C15.87785094 89.90314154 15.65047753 87.21143779 15.6267395 82.91772461 C15.63752533 82.10924072 15.64831116 81.30075684 15.65942383 80.46777344 C15.65898575 79.60887512 15.65854767 78.74997681 15.65809631 77.86505127 C15.66018428 75.02959362 15.6835157 72.1947292 15.70703125 69.359375 C15.71262718 67.39211348 15.71689729 65.42484777 15.71989441 63.45758057 C15.73134343 58.28223102 15.76081122 53.10713444 15.79400635 47.93188477 C15.82470592 42.64993715 15.83839951 37.36794863 15.85351562 32.0859375 C15.88568077 21.72384725 15.93687792 11.36194467 16 1 C10.72 1 5.44 1 0 1 C0 0.67 0 0.34 0 0 Z " fill="#80AE75" transform="translate(496,233)"/>
<path d="M0 0 C1.875 1.0625 1.875 1.0625 3 3 C3.46637117 5.75792334 3.50495465 8.24570188 3 11 C1.4375 13 1.4375 13 -1 14 C-4.39844421 14.35773097 -6.85873258 14.58904125 -9.9375 13 C-11.66705961 9.74435838 -11.75171717 6.53165237 -11 3 C-7.56705737 -1.13972494 -5.05326616 -1.64780418 0 0 Z " fill="#47536B" transform="translate(419,728)"/>
<path d="M0 0 C2.4375 1.625 2.4375 1.625 4 4 C4.60605429 7.63632575 4.47161336 9.28314769 2.4375 12.375 C-0.95870843 14.63913895 -3.00099302 14.64269755 -7 14 C-9.69500656 11.58140437 -10.80636871 9.99236035 -11.5 6.4375 C-10.19781462 0.08934627 -5.87567428 -0.83938204 0 0 Z " fill="#3C4B61" transform="translate(555,728)"/>
<path d="M0 0 C2.5 2.125 2.5 2.125 4 5 C3.936318 8.18409977 3.51040601 10.14932332 1.875 12.875 C-1.16832808 14.70099685 -3.54249555 14.42460581 -7 14 C-9.4375 12.375 -9.4375 12.375 -11 10 C-11.60605429 6.36367425 -11.47161336 4.71685231 -9.4375 1.625 C-6.04129157 -0.63913895 -3.99900698 -0.64269755 0 0 Z " fill="#394A61" transform="translate(695,728)"/>
<path d="M0 0 C0 6.6 0 13.2 0 20 C-0.99 20 -1.98 20 -3 20 C-3.33 15.05 -3.66 10.1 -4 5 C-4.66 5 -5.32 5 -6 5 C-6 5.99 -6 6.98 -6 8 C-7.32 8 -8.64 8 -10 8 C-10 11.96 -10 15.92 -10 20 C-10.99 20 -11.98 20 -13 20 C-13 16.04 -13 12.08 -13 8 C-13.66 8 -14.32 8 -15 8 C-15 7.34 -15 6.68 -15 6 C-14.34 6 -13.68 6 -13 6 C-12.67 4.35 -12.34 2.7 -12 1 C-7.18779389 -0.6040687 -5.13111614 -1.02622323 0 0 Z " fill="#3A4D6C" transform="translate(328,722)"/>
<path d="M0 0 C1.9375 1.1875 1.9375 1.1875 3 3 C3 4.65 3 6.3 3 8 C-0.63 8 -4.26 8 -8 8 C-8 8.66 -8 9.32 -8 10 C-2.42289352 11.06795656 2.39436958 10.82622671 8 10 C8.33 11.32 8.66 12.64 9 14 C3.58643092 15.03664089 -1.6192176 15.49293385 -7 14 C-9.625 11.875 -9.625 11.875 -11 9 C-10.9375 5.3125 -10.9375 5.3125 -10 2 C-6.30513897 -0.46324069 -4.36706908 -0.38991688 0 0 Z " fill="#3B4A66" transform="translate(461,728)"/>
<path d="M0 0 C3.4375 1 3.4375 1 5.4375 2.6875 C6.82656225 5.89970645 6.49271374 7.6936636 5.4375 11 C3.31318495 13.27605184 1.99643694 13.90218604 -1.0625 14.4375 C-4.46084723 13.84278924 -5.57491034 12.79734842 -7.5625 10 C-8.17225382 6.34147708 -8.00793026 4.69487121 -6 1.5625 C-3.5625 0 -3.5625 0 0 0 Z " fill="#F2F7F9" transform="translate(726.5625,691)"/>
<path d="M0 0 C4.29 0 8.58 0 13 0 C13 0.99 13 1.98 13 3 C9.7 3 6.4 3 3 3 C3 4.65 3 6.3 3 8 C5.97 8 8.94 8 12 8 C12 8.99 12 9.98 12 11 C9.03 11 6.06 11 3 11 C3 12.65 3 14.3 3 16 C6.63 16 10.26 16 14 16 C14 16.99 14 17.98 14 19 C9.38 19 4.76 19 0 19 C0 12.73 0 6.46 0 0 Z " fill="#4B5A73" transform="translate(482,723)"/>
<path d="M0 0 C4.66666667 0 9.33333333 0 14 0 C15.19625 -0.061875 16.3925 -0.12375 17.625 -0.1875 C18.73875 -0.125625 19.8525 -0.06375 21 0 C23.28062828 3.42094242 23.21925007 4.68187222 23.125 8.6875 C23.10695313 9.68136719 23.08890625 10.67523437 23.0703125 11.69921875 C23.04710937 12.45847656 23.02390625 13.21773437 23 14 C22.01 14 21.02 14 20 14 C19.505 9.05 19.505 9.05 19 4 C17.68 3.67 16.36 3.34 15 3 C13.33657163 4.66342837 13.63951903 6.7825709 13.4375 9.0625 C13.35371094 9.98160156 13.26992188 10.90070312 13.18359375 11.84765625 C13.12300781 12.55792969 13.06242188 13.26820313 13 14 C12.01 14 11.02 14 10 14 C9.67 10.7 9.34 7.4 9 4 C7.68 3.67 6.36 3.34 5 3 C2.60236815 5.39763185 2.65719414 6.33273498 2.375 9.625 C2.30023438 10.44226563 2.22546875 11.25953125 2.1484375 12.1015625 C2.09945313 12.72804688 2.05046875 13.35453125 2 14 C1.34 14 0.68 14 0 14 C0 9.38 0 4.76 0 0 Z " fill="#303F5B" transform="translate(500,728)"/>
<path d="M0 0 C4 4 4 4 4 8 C0.37 8.33 -3.26 8.66 -7 9 C-5.50256881 10.49743119 -4.01175761 10.33202693 -1.9375 10.5625 C-0.638125 10.706875 0.66125 10.85125 2 11 C2 11.66 2 12.32 2 13 C-1.12860495 14.56430248 -3.55602925 14.35627284 -7 14 C-9.5 11.9375 -9.5 11.9375 -11 9 C-11 5.16249192 -10.81388154 2.96460035 -8.3125 0 C-5.05747904 -1.40757663 -3.34721622 -1.11573874 0 0 Z " fill="#3D4D68" transform="translate(595,728)"/>
<path d="M0 0 C2.4375 1.75 2.4375 1.75 4 4 C4 5.32 4 6.64 4 8 C0.37 8 -3.26 8 -7 8 C-6.67 8.66 -6.34 9.32 -6 10 C-3.36 10 -0.72 10 2 10 C1.67 11.32 1.34 12.64 1 14 C-6.38052027 14.48396854 -6.38052027 14.48396854 -9 12.4375 C-10.37020241 9.09763163 -10.3898913 6.57400356 -10 3 C-7.7773391 -1.05308751 -4.20075589 -0.5158823 0 0 Z " fill="#3F4C62" transform="translate(402,728)"/>
<path d="M0 0 C0.99 0.66 1.98 1.32 3 2 C3 2.66 3 3.32 3 4 C2.30132813 3.98839844 1.60265625 3.97679687 0.8828125 3.96484375 C-0.02726563 3.95582031 -0.93734375 3.94679688 -1.875 3.9375 C-2.77992188 3.92589844 -3.68484375 3.91429687 -4.6171875 3.90234375 C-7.0168585 3.83750743 -7.0168585 3.83750743 -9 5 C-9.02689216 6.47906892 -9.04634621 7.95827483 -9.0625 9.4375 C-9.07410156 10.26121094 -9.08570313 11.08492187 -9.09765625 11.93359375 C-9.23267348 13.99163938 -9.23267348 13.99163938 -8 15 C-6.65252916 15.23075082 -5.29622435 15.41153063 -3.9375 15.5625 C-2.638125 15.706875 -1.33875 15.85125 0 16 C0 14.02 0 12.04 0 10 C0.99 9.67 1.98 9.34 3 9 C3 11.97 3 14.94 3 18 C-0.72747568 19.24249189 -4.13362443 19.65570112 -8 19 C-11.64184981 16.44295652 -12.77792202 14.77727291 -14 10.5 C-14 6.5573648 -13.49535546 5.0116359 -11 2 C-7.58542621 -0.56093034 -4.14438649 -0.30140993 0 0 Z " fill="#56677C" transform="translate(667,723)"/>
<path d="M0 0 C1.9375 1.1875 1.9375 1.1875 3 3 C3 4.65 3 6.3 3 8 C-0.63 8 -4.26 8 -8 8 C-7.67 8.66 -7.34 9.32 -7 10 C-4.36 10 -1.72 10 1 10 C1 11.32 1 12.64 1 14 C-6.34159292 14.36106195 -6.34159292 14.36106195 -8.9375 12.9375 C-10.60093625 9.90417507 -10.93957505 7.44422213 -11 4 C-8.19454211 -0.55886907 -5.07534236 -0.64595266 0 0 Z " fill="#414E66" transform="translate(622,728)"/>
<path d="M0 0 C0.66 0.99 1.32 1.98 2 3 C3.99956611 3.04165763 6.00043389 3.04165763 8 3 C10 5 10 5 10.125 8.125 C10.08375 9.07375 10.0425 10.0225 10 11 C10.99 11.33 11.98 11.66 13 12 C13 13.98 13 15.96 13 18 C9.94736336 18.98120464 8.05263664 18.98120464 5 18 C4.67 18.99 4.34 19.98 4 21 C3.34 20.67 2.68 20.34 2 20 C2.66 19.01 3.32 18.02 4 17 C3.91778291 13.92334973 3.91778291 13.92334973 3 11 C2.01 10.34 1.02 9.68 0 9 C0 8.34 0 7.68 0 7 C-0.66 6.67 -1.32 6.34 -2 6 C-1.34 4.02 -0.68 2.04 0 0 Z " fill="#425B82" transform="translate(728,683)"/>
<path d="M0 0 C1.875 0.3203125 1.875 0.3203125 3.875 1.5078125 C4.875 3.3203125 4.875 3.3203125 4.875 8.3203125 C1.245 8.3203125 -2.385 8.3203125 -6.125 8.3203125 C-5.135 9.8053125 -5.135 9.8053125 -4.125 11.3203125 C-2.14752878 11.68329186 -2.14752878 11.68329186 0 11.5078125 C1.27875 11.4459375 2.5575 11.3840625 3.875 11.3203125 C3.875 11.9803125 3.875 12.6403125 3.875 13.3203125 C0.78326248 14.86618126 -1.71929552 14.61390771 -5.125 14.3203125 C-7.5625 12.6953125 -7.5625 12.6953125 -9.125 10.3203125 C-9.60788863 7.00907618 -9.42118989 5.0237635 -8.125 1.9453125 C-5.41453649 -0.2569391 -3.41604139 -0.18838464 0 0 Z " fill="#414C65" transform="translate(340.125,727.6796875)"/>
<path d="M0 0 C0.99 0 1.98 0 3 0 C3.06058594 0.91523437 3.12117188 1.83046875 3.18359375 2.7734375 C3.26738281 3.96195313 3.35117187 5.15046875 3.4375 6.375 C3.51871094 7.55835938 3.59992188 8.74171875 3.68359375 9.9609375 C3.81084936 12.91518901 3.81084936 12.91518901 5 15 C6.99954746 15.04254356 9.00041636 15.04080783 11 15 C12.94090826 13.05909174 12.39919435 9.52706098 12.5625 6.9375 C12.64628906 5.64714844 12.73007812 4.35679687 12.81640625 3.02734375 C12.87699219 2.02832031 12.93757813 1.02929688 13 0 C13.99 0 14.98 0 16 0 C16.10826289 2.4178712 16.18739789 4.83087556 16.25 7.25 C16.30027344 8.27287109 16.30027344 8.27287109 16.3515625 9.31640625 C16.41794906 12.73531422 16.25363918 14.64625489 14.23828125 17.45703125 C10.58131472 19.97797676 8.37448136 19.48605348 4 19 C1.32568511 17.18836733 1.04079641 16.12238923 0 13 C-0.06937062 10.77181559 -0.08457084 8.54165476 -0.0625 6.3125 C-0.05347656 5.13300781 -0.04445313 3.95351563 -0.03515625 2.73828125 C-0.02355469 1.83464844 -0.01195312 0.93101562 0 0 Z " fill="#3B4F6A" transform="translate(268,723)"/>
<path d="M0 0 C0.99 0 1.98 0 3 0 C4.32 2.64 5.64 5.28 7 8 C7.99 5.36 8.98 2.72 10 0 C11.32 0.33 12.64 0.66 14 1 C15.52164099 3.89111788 16 5.71823412 16 9 C16.66 9 17.32 9 18 9 C18.66 6.03 19.32 3.06 20 0 C20.99 0 21.98 0 23 0 C22.54636829 1.58468677 22.08688548 3.16769924 21.625 4.75 C21.24214844 6.07257812 21.24214844 6.07257812 20.8515625 7.421875 C20.0790066 9.76080572 19.16374324 11.83442562 18 14 C17.01 14 16.02 14 15 14 C14.01 11.03 13.02 8.06 12 5 C10.68 7.97 9.36 10.94 8 14 C7.01 14 6.02 14 5 14 C3.35 9.38 1.7 4.76 0 0 Z " fill="#405066" transform="translate(560,728)"/>
<path d="M0 0 C0.99 0 1.98 0 3 0 C1.3592295 5.74269676 -1.33836931 9.93554975 -5.0625 14.5625 C-8.8944938 19.26167642 -8.8944938 19.26167642 -10 25 C-10.99 25 -11.98 25 -13 25 C-13.33 26.65 -13.66 28.3 -14 30 C-14.66 30 -15.32 30 -16 30 C-16.37125 30.8353125 -16.37125 30.8353125 -16.75 31.6875 C-18.21606015 34.39971127 -20.02989471 36.63587365 -22 39 C-21.34 39.33 -20.68 39.66 -20 40 C-22.3125 42.5 -22.3125 42.5 -25 45 C-25.99 45 -26.98 45 -28 45 C-28.33 44.34 -28.66 43.68 -29 43 C-28.28972656 42.3296875 -27.57945312 41.659375 -26.84765625 40.96875 C-23.64430604 37.75527329 -21.0444868 34.20395606 -18.4375 30.5 C-17.92735352 29.77820557 -17.41720703 29.05641113 -16.89160156 28.31274414 C-10.62260292 19.25869402 -5.29928513 9.64293819 0 0 Z " fill="#A8ABB4" transform="translate(451,447)"/>
<path d="M0 0 C3.63 0 7.26 0 11 0 C11 0.33 11 0.66 11 1 C8.03 1 5.06 1 2 1 C2 23.11 2 45.22 2 68 C5.96 68.33 9.92 68.66 14 69 C14 69.33 14 69.66 14 70 C9.38 70 4.76 70 0 70 C0 46.9 0 23.8 0 0 Z " fill="#25395A" transform="translate(457,603)"/>
<path d="M0 0 C0.99 0 1.98 0 3 0 C3.33 1.98 3.66 3.96 4 6 C4.928125 5.938125 5.85625 5.87625 6.8125 5.8125 C10 6 10 6 11.6875 7.15625 C13.51962482 9.72994915 13.29770208 11.56510786 13.1875 14.6875 C13.16042969 15.68136719 13.13335938 16.67523437 13.10546875 17.69921875 C13.07066406 18.45847656 13.03585937 19.21773437 13 20 C12.01 20 11.02 20 10 20 C9.67 16.7 9.34 13.4 9 10 C7.35 10 5.7 10 4 10 C2.41727399 11.58272601 2.65264253 13.38034003 2.4375 15.5625 C2.35371094 16.38878906 2.26992188 17.21507812 2.18359375 18.06640625 C2.12300781 18.70449219 2.06242188 19.34257813 2 20 C1.34 20 0.68 20 0 20 C0 13.4 0 6.8 0 0 Z " fill="#4A5B77" transform="translate(737,722)"/>
<path d="M0 0 C0.33 0 0.66 0 1 0 C1 6.6 1 13.2 1 20 C1.66 20.33 2.32 20.66 3 21 C1.35 21 -0.3 21 -2 21 C-2.33 20.01 -2.66 19.02 -3 18 C-4.65 17.67 -6.3 17.34 -8 17 C-8 14.03 -8 11.06 -8 8 C-6.68 8 -5.36 8 -4 8 C-4 7.34 -4 6.68 -4 6 C-4.66 5.67 -5.32 5.34 -6 5 C-4.68 5 -3.36 5 -2 5 C-1.67 5.99 -1.34 6.98 -1 8 C-0.67 5.36 -0.34 2.72 0 0 Z " fill="#CBD4DC" transform="translate(736,722)"/>
<path d="M0 0 C10.41390728 -0.36754967 10.41390728 -0.36754967 12.84375 1.15625 C14.46489067 3.74131215 14.29419981 5.6643388 14.1875 8.6875 C14.16042969 9.68136719 14.13335937 10.67523437 14.10546875 11.69921875 C14.07066406 12.45847656 14.03585937 13.21773437 14 14 C13.01 14 12.02 14 11 14 C10.67 10.7 10.34 7.4 10 4 C8.02 4 6.04 4 4 4 C3.67 7.3 3.34 10.6 3 14 C2.01 14 1.02 14 0 14 C0 9.38 0 4.76 0 0 Z " fill="#384A66" transform="translate(289,728)"/>
<path d="M0 0 C5.38401726 0.6947119 8.60599071 2.60266254 14 5 C14 24.14 14 43.28 14 63 C13.67 63 13.34 63 13 63 C11.94132612 51.60271406 11.91070543 40.30895713 12 28.875 C12.02664618 25.39323253 12.04655339 21.91151846 12.0625 18.4296875 C12.07079834 17.64117401 12.07909668 16.85266052 12.08764648 16.04025269 C12.12379937 10.93353497 12.12379937 10.93353497 11 6 C8.76740335 4.77227173 8.76740335 4.77227173 6 4 C4.906875 3.62875 3.81375 3.2575 2.6875 2.875 C1.800625 2.58625 0.91375 2.2975 0 2 C0 1.34 0 0.68 0 0 Z " fill="#A8C47E" transform="translate(640,261)"/>
<path d="M0 0 C18.92680242 -0.35243759 37.25013276 -0.04577336 56 3 C55.67 3.99 55.34 4.98 55 6 C54.34 5.67 53.68 5.34 53 5 C50.78869208 4.96958909 48.59600097 5.06638366 46.38671875 5.16015625 C44 5 44 5 41.68212891 4.00219727 C38.80725063 2.92797778 36.7530835 2.76896978 33.69921875 2.8046875 C32.72275391 2.81113281 31.74628906 2.81757813 30.74023438 2.82421875 C29.22913086 2.84935547 29.22913086 2.84935547 27.6875 2.875 C26.14739258 2.88853516 26.14739258 2.88853516 24.57617188 2.90234375 C22.05054101 2.92583799 19.5253919 2.95868869 17 3 C17 2.34 17 1.68 17 1 C11.39 1 5.78 1 0 1 C0 0.67 0 0.34 0 0 Z " fill="#A5C28E" transform="translate(496,233)"/>
<path d="M0 0 C-1.77213953 4.81009302 -4.07360577 7.60871528 -8.25 10.625 C-11.24674345 13.21309661 -13.25530375 15.93991963 -15.47265625 19.1953125 C-17.16933595 21.20008493 -18.63405776 21.92413894 -21 23 C-21.66 23.66 -22.32 24.32 -23 25 C-23.99 24.67 -24.98 24.34 -26 24 C-22.62501264 20.57568181 -19.24358951 17.15790288 -15.85595703 13.74609375 C-14.70375906 12.58382014 -13.55336008 11.41976033 -12.40478516 10.25390625 C-10.75629586 8.58123721 -9.10150495 6.91503765 -7.4453125 5.25 C-6.6733403 4.46254395 -6.6733403 4.46254395 -5.88577271 3.65917969 C-2.22774341 0 -2.22774341 0 0 0 Z " fill="#73A462" transform="translate(548,456)"/>
<path d="M0 0 C2.10633718 1.70828921 2.93801608 2.52148416 3.29296875 5.26171875 C3.25816406 6.06222656 3.22335937 6.86273437 3.1875 7.6875 C3.16042969 8.49574219 3.13335938 9.30398438 3.10546875 10.13671875 C3.07066406 10.75160156 3.03585937 11.36648438 3 12 C-4.0547046 16.07877462 -4.0547046 16.07877462 -8 15.75 C-8.66 15.5025 -9.32 15.255 -10 15 C-10 14.67 -10 14.34 -10 14 C-6.535 13.505 -6.535 13.505 -3 13 C-3.33 12.34 -3.66 11.68 -4 11 C-6.31 11 -8.62 11 -11 11 C-11.33 10.01 -11.66 9.02 -12 8 C-8.37 8 -4.74 8 -1 8 C-1.20625 7.05125 -1.4125 6.1025 -1.625 5.125 C-1.74875 4.09375 -1.8725 3.0625 -2 2 C-1.34 1.34 -0.68 0.68 0 0 Z " fill="#E2E9F0" transform="translate(626,728)"/>
<path d="M0 0 C1.65 0.33 3.3 0.66 5 1 C5 7.6 5 14.2 5 21 C4.01 21 3.02 21 2 21 C1.67 16.05 1.34 11.1 1 6 C-0.98 6.33 -2.96 6.66 -5 7 C-5 6.01 -5 5.02 -5 4 C-3.35 4 -1.7 4 0 4 C0 2.68 0 1.36 0 0 Z " fill="#758092" transform="translate(323,721)"/>
<path d="M0 0 C0.33 0 0.66 0 1 0 C1 10.89 1 21.78 1 33 C0.67 33 0.34 33 0 33 C-0.33 26.4 -0.66 19.8 -1 13 C-3.62113708 13 -5.50935112 13.31292445 -8 14 C-7.043419 12.22821947 -6.08467012 10.45760924 -5.125 8.6875 C-4.59132813 7.70136719 -4.05765625 6.71523438 -3.5078125 5.69921875 C-2 3 -2 3 0 0 Z " fill="#344F61" transform="translate(511,411)"/>
<path d="M0 0 C1.32 0.33 2.64 0.66 4 1 C-14.85106383 15 -14.85106383 15 -22 15 C-22 14.34 -22 13.68 -22 13 C-20.02 12.67 -18.04 12.34 -16 12 C-16 11.01 -16 10.02 -16 9 C-15.37351562 8.84144531 -14.74703125 8.68289063 -14.1015625 8.51953125 C-8.84375314 7.2094023 -8.84375314 7.2094023 -5.4375 3.3125 C-5.293125 2.549375 -5.14875 1.78625 -5 1 C-3.68 1.33 -2.36 1.66 -1 2 C-0.67 1.34 -0.34 0.68 0 0 Z " fill="#699A5E" transform="translate(552,531)"/>
<path d="M0 0 C2.375 0.75 2.375 0.75 3.375 1.75 C3.625 4.6875 3.625 4.6875 3.375 7.75 C0.375 9.75 0.375 9.75 -2.3125 9.375 C-3.075625 9.16875 -3.83875 8.9625 -4.625 8.75 C-5.95341008 3.31559513 -5.95341008 3.31559513 -4.5 0.8125 C-2.625 -0.25 -2.625 -0.25 0 0 Z " fill="#E8EEF1" transform="translate(552.625,730.25)"/>
<path d="M0 0 C3.29714793 0.32971479 4.6226839 0.6226839 7 3 C6.67028521 6.29714793 6.3773161 7.6226839 4 10 C-0.55555556 9.44444444 -0.55555556 9.44444444 -2 8 C-2.1875 5.0625 -2.1875 5.0625 -2 2 C-1.34 1.34 -0.68 0.68 0 0 Z " fill="#E8EEEF" transform="translate(689,730)"/>
<path d="M0 0 C4.55555556 0.55555556 4.55555556 0.55555556 6 2 C6.1875 4.9375 6.1875 4.9375 6 8 C5.34 8.66 4.68 9.32 4 10 C0.70285207 9.67028521 -0.6226839 9.3773161 -3 7 C-2.67028521 3.70285207 -2.3773161 2.3773161 0 0 Z " fill="#ECF1F5" transform="translate(633,730)"/>
<path d="M0 0 C1 1 1 1 1.25 3.9375 C1.1675 4.948125 1.085 5.95875 1 7 C-2 9 -2 9 -4.0625 8.75 C-6 8 -6 8 -8 6 C-7.75 2.9375 -7.75 2.9375 -7 0 C-4.31633121 -1.3418344 -2.84719317 -0.73004953 0 0 Z " fill="#EAEEF3" transform="translate(358,731)"/>
<path d="M0 0 C0 0.33 0 0.66 0 1 C-1.24716797 1.09087891 -1.24716797 1.09087891 -2.51953125 1.18359375 C-4.14955078 1.30927734 -4.14955078 1.30927734 -5.8125 1.4375 C-6.89144531 1.51871094 -7.97039062 1.59992188 -9.08203125 1.68359375 C-12.05989905 1.90212461 -12.05989905 1.90212461 -15 3 C-15.66 2.67 -16.32 2.34 -17 2 C-17.33 2.66 -17.66 3.32 -18 4 C-18 3.34 -18 2.68 -18 2 C-18.65484375 2.12117187 -19.3096875 2.24234375 -19.984375 2.3671875 C-21.9146053 2.72160832 -23.84566785 3.07151333 -25.77734375 3.41796875 C-27.91754865 3.80450273 -30.05565325 4.20286115 -32.19140625 4.61328125 C-33.22136719 4.80277344 -34.25132812 4.99226562 -35.3125 5.1875 C-36.25738281 5.36667969 -37.20226562 5.54585937 -38.17578125 5.73046875 C-41.30767805 6.02936347 -43.9308581 5.63921567 -47 5 C-47 4.67 -47 4.34 -47 4 C-31.25785024 1.45225511 -15.96662331 -0.70787985 0 0 Z " fill="#457497" transform="translate(503,234)"/>
<path d="M0 0 C1.65 0.33 3.3 0.66 5 1 C4.67 1.66 4.34 2.32 4 3 C3.93049459 4.54023996 3.91547643 6.08334988 3.9375 7.625 C3.94652344 8.44226563 3.95554687 9.25953125 3.96484375 10.1015625 C3.97644531 10.72804688 3.98804688 11.35453125 4 12 C2.68 12 1.36 12 0 12 C0 12.66 0 13.32 0 14 C-0.66 13.67 -1.32 13.34 -2 13 C-1.67 12.01 -1.34 11.02 -1 10 C-1.99 10.495 -1.99 10.495 -3 11 C-4.99960012 11.039992 -7.00047242 11.04346799 -9 11 C-9.33 10.01 -9.66 9.02 -10 8 C-6.37 8 -2.74 8 1 8 C0.67 5.36 0.34 2.72 0 0 Z " fill="#E6EBF2" transform="translate(405,728)"/>
<path d="M0 0 C1.875 0.75 1.875 0.75 2.875 1.75 C2.94705511 3.43608966 2.95886068 5.12500659 2.9375 6.8125 C2.92847656 7.73160156 2.91945313 8.65070312 2.91015625 9.59765625 C2.89855469 10.30792969 2.88695312 11.01820313 2.875 11.75 C2.545 10.43 2.215 9.11 1.875 7.75 C-1.04017292 8.82401108 -2.90310176 9.52810176 -5.125 11.75 C-5.20631463 10.31344146 -5.26433559 8.8755517 -5.3125 7.4375 C-5.34730469 6.63699219 -5.38210938 5.83648438 -5.41796875 5.01171875 C-5.125 2.75 -5.125 2.75 -3.74609375 0.94140625 C-2.125 -0.25 -2.125 -0.25 0 0 Z " fill="#E2E8ED" transform="translate(507.125,730.25)"/>
<path d="M0 0 C4.55555556 0.55555556 4.55555556 0.55555556 6 2 C6.1875 4.9375 6.1875 4.9375 6 8 C5.34 8.66 4.68 9.32 4 10 C-0.55555556 9.44444444 -0.55555556 9.44444444 -2 8 C-2.1875 5.0625 -2.1875 5.0625 -2 2 C-1.34 1.34 -0.68 0.68 0 0 Z " fill="#EEF3F6" transform="translate(533,730)"/>
<path d="M0 0 C4.55555556 0.55555556 4.55555556 0.55555556 6 2 C6.1875 4.9375 6.1875 4.9375 6 8 C5.34 8.66 4.68 9.32 4 10 C-0.55555556 9.44444444 -0.55555556 9.44444444 -2 8 C-2.1875 5.0625 -2.1875 5.0625 -2 2 C-1.34 1.34 -0.68 0.68 0 0 Z " fill="#EEF2F6" transform="translate(431,730)"/>
<path d="M0 0 C0.33 0 0.66 0 1 0 C1.39453125 2.07421875 1.39453125 2.07421875 1 5 C-0.83039504 7.55125149 -3.04475257 9.65078964 -5.3125 11.8125 C-6.20485352 12.7087207 -6.20485352 12.7087207 -7.11523438 13.62304688 C-11.59223214 18 -11.59223214 18 -15 18 C-13.34185057 14.40734291 -11.38641889 11.15849558 -9 8 C-6.9375 7.375 -6.9375 7.375 -5 7 C-3.32337286 5.15340529 -3.32337286 5.15340529 -2 3 C-1.34 2.01 -0.68 1.02 0 0 Z " fill="#6FA158" transform="translate(591,497)"/>
<path d="M0 0 C0.99 0 1.98 0 3 0 C3.10826289 2.4178712 3.18739789 4.83087556 3.25 7.25 C3.30027344 8.27287109 3.30027344 8.27287109 3.3515625 9.31640625 C3.41984243 12.83282253 3.26749128 14.64850319 1.109375 17.484375 C-1 19 -1 19 -3 19 C-3 18.34 -3 17.68 -3 17 C-3.99 16.67 -4.98 16.34 -6 16 C-4.35 15.34 -2.7 14.68 -1 14 C-0.67 9.38 -0.34 4.76 0 0 Z " fill="#44546F" transform="translate(281,723)"/>
<path d="M0 0 C4.55555556 0.55555556 4.55555556 0.55555556 6 2 C6.125 5 6.125 5 6 8 C5 9 5 9 2 9.125 C-1 9 -1 9 -2 8 C-2.1875 5.0625 -2.1875 5.0625 -2 2 C-1.34 1.34 -0.68 0.68 0 0 Z " fill="#F5F7F9" transform="translate(413,730)"/>
<path d="M0 0 C1.32 0.66 2.64 1.32 4 2 C-3.92 7.28 -11.84 12.56 -20 18 C-20 17.01 -20 16.02 -20 15 C-19.34 15 -18.68 15 -18 15 C-18 14.34 -18 13.68 -18 13 C-13.56080367 8.56080367 -10.13621953 7.16376577 -4 6 C-4 5.34 -4 4.68 -4 4 C-3.01 4 -2.02 4 -1 4 C-0.67 2.68 -0.34 1.36 0 0 Z " fill="#9EBD74" transform="translate(600,276)"/>
<path d="M0 0 C4.6411055 3.09407033 5.55295778 7.75897147 7 13 C7.27425385 15.46406536 7.22049113 17.51947477 7 20 C4.75191746 16.62787619 3.94839557 13.7125039 2.875 9.8125 C2.69324219 9.15830078 2.51148438 8.50410156 2.32421875 7.83007812 C1.87800956 6.22137657 1.43835785 4.61085869 1 3 C-2.42946293 4.61674681 -5.56263052 6.57597677 -8.75 8.625 C-10.22726562 9.57246094 -10.22726562 9.57246094 -11.734375 10.5390625 C-12.48203125 11.02117187 -13.2296875 11.50328125 -14 12 C-14 11.01 -14 10.02 -14 9 C-9.77777778 6 -9.77777778 6 -7 6 C-7 4.68 -7 3.36 -7 2 C-6.21625 1.855625 -5.4325 1.71125 -4.625 1.5625 C-2.03578982 1.12201075 -2.03578982 1.12201075 0 0 Z " fill="#A4C076" transform="translate(620,265)"/>
<path d="M0 0 C4.29 0 8.58 0 13 0 C13 0.99 13 1.98 13 3 C9.37 3 5.74 3 2 3 C2.99 4.485 2.99 4.485 4 6 C5.97747122 6.36297936 5.97747122 6.36297936 8.125 6.1875 C9.40375 6.125625 10.6825 6.06375 12 6 C12 6.66 12 7.32 12 8 C8.98131566 9.50934217 6.32702771 9.17510672 3 9 C2.01 8.34 1.02 7.68 0 7 C-0.1875 3.375 -0.1875 3.375 0 0 Z " fill="#374660" transform="translate(332,733)"/>
<path d="M0 0 C6 4 6 4 12 8 C12 8.99 12 9.98 12 11 C9.525 10.01 9.525 10.01 7 9 C7.309375 10.1446875 7.309375 10.1446875 7.625 11.3125 C8 14 8 14 6 17 C4.99580363 14.5433053 3.99649499 12.08481647 3 9.625 C2.71382813 8.92632812 2.42765625 8.22765625 2.1328125 7.5078125 C0 2.2265625 0 2.2265625 0 0 Z " fill="#CFD9E1" transform="translate(458,346)"/>
<path d="M0 0 C6.15234375 -0.09765625 6.15234375 -0.09765625 8 0 C9 1 9 1 9.125 3.5 C9 6 9 6 8 7 C5.32941149 7.14115161 2.67567762 7.04247107 0 7 C0 4.69 0 2.38 0 0 Z " fill="#F4F6F9" transform="translate(378,726)"/>
<path d="M0 0 C1.77007714 -0.08114106 3.54122098 -0.13925505 5.3125 -0.1875 C6.29863281 -0.22230469 7.28476562 -0.25710938 8.30078125 -0.29296875 C11 0 11 0 12.84375 1.25 C14.89969134 4.361695 14.17887839 7.36280599 14 11 C13.01 11.495 13.01 11.495 12 12 C10 10 10 10 9.875 6.875 C9.91625 5.92625 9.9575 4.9775 10 4 C6.30458414 3.04975021 3.69541586 3.04975021 0 4 C0 2.68 0 1.36 0 0 Z " fill="#434F68" transform="translate(426,728)"/>
<path d="M0 0 C0 1.32 0 2.64 0 4 C0.99 4.33 1.98 4.66 3 5 C3 5.66 3 6.32 3 7 C1.54176788 7.0270043 0.08339325 7.04639787 -1.375 7.0625 C-2.18710937 7.07410156 -2.99921875 7.08570313 -3.8359375 7.09765625 C-6 7 -6 7 -8 6 C-8.33 7.32 -8.66 8.64 -9 10 C-8.51309271 3.54847841 -8.51309271 3.54847841 -6.1875 1.0625 C-4 0 -4 0 0 0 Z " fill="#6C778B" transform="translate(593,727)"/>
<path d="M0 0 C0.99 0 1.98 0 3 0 C3 6.6 3 13.2 3 20 C2.01 20 1.02 20 0 20 C0 13.4 0 6.8 0 0 Z " fill="#3D4B62" transform="translate(444,722)"/>
<path d="M0 0 C0.99 0.33 1.98 0.66 3 1 C0.77822262 3.72034616 -1.44553273 6.43893308 -3.67578125 9.15234375 C-5.00196899 10.77720234 -6.31867847 12.41017253 -7.60546875 14.06640625 C-8.67330985 15.4299572 -9.82813739 16.72473775 -11 18 C-11.99 18 -12.98 18 -14 18 C-12.68761832 15.15741394 -11.23292824 12.90591755 -9.1796875 10.546875 C-8.64472656 9.928125 -8.10976563 9.309375 -7.55859375 8.671875 C-7.00300781 8.03765625 -6.44742188 7.4034375 -5.875 6.75 C-5.31167969 6.1003125 -4.74835937 5.450625 -4.16796875 4.78125 C-2.78235636 3.184273 -1.39167246 1.59169878 0 0 Z " fill="#79A55E" transform="translate(568,430)"/>
<path d="M0 0 C2.97 0.33 5.94 0.66 9 1 C9 1.33 9 1.66 9 2 C6.69 2 4.38 2 2 2 C2 4.97 2 7.94 2 11 C4.31 11 6.62 11 9 11 C9.33 11.66 9.66 12.32 10 13 C7.36 13 4.72 13 2 13 C2 14.98 2 16.96 2 19 C1.34 19 0.68 19 0 19 C0 12.73 0 6.46 0 0 Z " fill="#2C3C53" transform="translate(375,723)"/>
<path d="M0 0 C0.99 0.66 1.98 1.32 3 2 C3 2.66 3 3.32 3 4 C1.96939453 3.94779297 1.96939453 3.94779297 0.91796875 3.89453125 C0.01691406 3.86746094 -0.88414062 3.84039063 -1.8125 3.8125 C-2.70582031 3.77769531 -3.59914063 3.74289062 -4.51953125 3.70703125 C-7.03698237 3.79291634 -7.03698237 3.79291634 -8.78125 5.34375 C-10.35614134 7.48398695 -10.64789956 9.39445677 -11 12 C-11.66 11.67 -12.32 11.34 -13 11 C-13.49046322 5.60490463 -13.49046322 5.60490463 -11.125 2.6875 C-7.35608229 -0.30546406 -4.78881255 -0.25204277 0 0 Z " fill="#384764" transform="translate(667,723)"/>
<path d="M0 0 C-1.67229701 3.95969176 -4.36304994 7.0161201 -7.125 10.25 C-7.59292969 10.80429687 -8.06085938 11.35859375 -8.54296875 11.9296875 C-9.69175328 13.28947326 -10.84539653 14.64515165 -12 16 C-12.66 15.34 -13.32 14.68 -14 14 C-12.66536458 12.53515625 -11.33072917 11.0703125 -9.99609375 9.60546875 C-9.50302734 8.81076172 -9.50302734 8.81076172 -9 8 C-9.33 7.01 -9.66 6.02 -10 5 C-8.90241493 4.15801693 -7.79664683 3.32669329 -6.6875 2.5 C-6.07261719 2.0359375 -5.45773437 1.571875 -4.82421875 1.09375 C-3 0 -3 0 0 0 Z " fill="#364668" transform="translate(511,444)"/>
<path d="M0 0 C6.40818182 -0.36272727 6.40818182 -0.36272727 8.9375 1.1875 C10 3 10 3 10 8 C4.06 8.495 4.06 8.495 -2 9 C-1.67 7.68 -1.34 6.36 -1 5 C1.64 5.33 4.28 5.66 7 6 C7 5.01 7 4.02 7 3 C4.36 3 1.72 3 -1 3 C-0.67 2.01 -0.34 1.02 0 0 Z " fill="#35465F" transform="translate(454,728)"/>
<path d="M0 0 C2.64 0 5.28 0 8 0 C7.67 0.99 7.34 1.98 7 3 C6.01 3.33 5.02 3.66 4 4 C3.67 7.3 3.34 10.6 3 14 C2.01 14 1.02 14 0 14 C0 9.38 0 4.76 0 0 Z " fill="#40506A" transform="translate(675,728)"/>
<path d="M0 0 C1.65 0 3.3 0 5 0 C4.814375 0.94875 4.62875 1.8975 4.4375 2.875 C3.71313368 5.89868793 3.71313368 5.89868793 5 8 C-1.4 9.23076923 -1.4 9.23076923 -4.4375 8.0625 C-4.953125 7.711875 -5.46875 7.36125 -6 7 C-6 6.34 -6 5.68 -6 5 C-5.195625 4.731875 -4.39125 4.46375 -3.5625 4.1875 C-2.716875 3.795625 -1.87125 3.40375 -1 3 C-0.67 2.01 -0.34 1.02 0 0 Z " fill="#33527A" transform="translate(723,683)"/>
<path d="M0 0 C0.33 1.32 0.66 2.64 1 4 C0.01 4.495 0.01 4.495 -1 5 C-1.433125 5.86625 -1.433125 5.86625 -1.875 6.75 C-3.24405447 9.48810895 -5.04555897 11.65467076 -7 14 C-6.34 14.33 -5.68 14.66 -5 15 C-7.3125 17.5 -7.3125 17.5 -10 20 C-10.99 20 -11.98 20 -13 20 C-13.33 19.34 -13.66 18.68 -14 18 C-13.27425781 17.31550781 -12.54851562 16.63101562 -11.80078125 15.92578125 C-8.82913224 12.95413224 -6.52049977 9.66953127 -4.1875 6.1875 C-3.78080078 5.59001953 -3.37410156 4.99253906 -2.95507812 4.37695312 C-1.96520297 2.92125436 -0.98190265 1.46108826 0 0 Z " fill="#999AA1" transform="translate(436,472)"/>
<path d="M0 0 C2.64 0 5.28 0 8 0 C7.67 0.99 7.34 1.98 7 3 C6.01 3.33 5.02 3.66 4 4 C3.67 7.3 3.34 10.6 3 14 C2.01 14 1.02 14 0 14 C0 9.38 0 4.76 0 0 Z " fill="#33455E" transform="translate(602,728)"/>
<path d="M0 0 C2.475 0.99 2.475 0.99 5 2 C3.68 2.33 2.36 2.66 1 3 C1 3.66 1 4.32 1 5 C3.475 5.99 3.475 5.99 6 7 C5.34 7.66 4.68 8.32 4 9 C3.01 9 2.02 9 1 9 C-1.17032476 10.43990623 -1.17032476 10.43990623 -3 12 C-3.66 11.67 -4.32 11.34 -5 11 C-5 12.65 -5 14.3 -5 16 C-5.33 16 -5.66 16 -6 16 C-6 14.02 -6 12.04 -6 10 C-4.68 10 -3.36 10 -2 10 C-2.226875 8.906875 -2.45375 7.81375 -2.6875 6.6875 C-3 3 -3 3 -1.5625 1.0625 C-1.046875 0.711875 -0.53125 0.36125 0 0 Z " fill="#465E80" transform="translate(716,685)"/>
<path d="M0 0 C0.66 0 1.32 0 2 0 C2 0.66 2 1.32 2 2 C3.32 2 4.64 2 6 2 C6 2.66 6 3.32 6 4 C4.68 4 3.36 4 2 4 C2.33 6.97 2.66 9.94 3 13 C4.32 13.33 5.64 13.66 7 14 C7 14.66 7 15.32 7 16 C5.00045254 16.04254356 2.99958364 16.04080783 1 16 C0 15 0 15 -0.09765625 12.49609375 C-0.08605469 11.48675781 -0.07445312 10.47742188 -0.0625 9.4375 C-0.05347656 8.42558594 -0.04445313 7.41367187 -0.03515625 6.37109375 C-0.02355469 5.58863281 -0.01195312 4.80617188 0 4 C-0.66 4 -1.32 4 -2 4 C-2 3.34 -2 2.68 -2 2 C-1.34 2 -0.68 2 0 2 C0 1.34 0 0.68 0 0 Z " fill="#2C3F5D" transform="translate(726,726)"/>
<path d="M0 0 C0.66 0 1.32 0 2 0 C2.33 8.58 2.66 17.16 3 26 C3.99 25.34 4.98 24.68 6 24 C6.33 24.66 6.66 25.32 7 26 C6.19152271 27.16945792 5.37810888 28.33550461 4.5625 29.5 C4.11003906 30.1496875 3.65757812 30.799375 3.19140625 31.46875 C2.60166016 32.22671875 2.60166016 32.22671875 2 33 C1.67 33 1.34 33 1 33 C0.67 22.11 0.34 11.22 0 0 Z " fill="#739B6A" transform="translate(511,410)"/>
<path d="M0 0 C0.33 0 0.66 0 1 0 C1.66 1.98 2.32 3.96 3 6 C4.65 5.67 6.3 5.34 8 5 C8.33 3.35 8.66 1.7 9 0 C9.33 1.32 9.66 2.64 10 4 C10.66 4 11.32 4 12 4 C10.125 7.875 10.125 7.875 9 9 C6.66702567 9.04092937 4.33294775 9.04241723 2 9 C1.67 10.65 1.34 12.3 1 14 C0.67 14 0.34 14 0 14 C-0.19627391 12.41773035 -0.38165538 10.83410729 -0.5625 9.25 C-0.66691406 8.36828125 -0.77132812 7.4865625 -0.87890625 6.578125 C-0.99456676 4.11567549 -0.73638695 2.33461936 0 0 Z " fill="#4E6073" transform="translate(530,733)"/>
<path d="M0 0 C1.32 0 2.64 0 4 0 C4.33 1.65 4.66 3.3 5 5 C4.01 5.33 3.02 5.66 2 6 C2.33 7.98 2.66 9.96 3 12 C1.35 12 -0.3 12 -2 12 C-2 9.03 -2 6.06 -2 3 C-0.68 3 0.64 3 2 3 C2 2.34 2 1.68 2 1 C1.34 0.67 0.68 0.34 0 0 Z " fill="#D9E1E8" transform="translate(730,727)"/>
<path d="M0 0 C3.3 0 6.6 0 10 0 C10 2.64 10 5.28 10 8 C9.67 7.01 9.34 6.02 9 5 C6.03 5 3.06 5 0 5 C0 3.35 0 1.7 0 0 Z " fill="#F3F7FA" transform="translate(485,726)"/>
<path d="M0 0 C4.455 0.99 4.455 0.99 9 2 C9 2.33 9 2.66 9 3 C7.35 3.33 5.7 3.66 4 4 C3.67 7.3 3.34 10.6 3 14 C2.01 14 1.02 14 0 14 C0 9.38 0 4.76 0 0 Z " fill="#41556C" transform="translate(289,728)"/>
<path d="M0 0 C0.99 0.495 0.99 0.495 2 1 C2 2.32 2 3.64 2 5 C2.99 5.33 3.98 5.66 5 6 C4.01 7.485 4.01 7.485 3 9 C3.309375 9.556875 3.61875 10.11375 3.9375 10.6875 C5.05761821 13.12540433 5.56037364 15.36224186 6 18 C4.125 17.375 4.125 17.375 2 16 C-0.56626976 10.86746048 -0.19901543 5.59454489 0 0 Z " fill="#303F5F" transform="translate(378,381)"/>
<path d="M0 0 C0.66 0 1.32 0 2 0 C2.67548578 2.05962852 3.34004312 4.12284322 4 6.1875 C4.37125 7.33605469 4.7425 8.48460937 5.125 9.66796875 C5.90630553 12.64320812 6.18363306 14.95283896 6 18 C6.99 18.33 7.98 18.66 9 19 C8.67 21.31 8.34 23.62 8 26 C6.14216739 23.21325108 5.38748774 21.3476866 4.4921875 18.18359375 C4.22792969 17.25482422 3.96367188 16.32605469 3.69140625 15.36914062 C3.42199219 14.40169922 3.15257812 13.43425781 2.875 12.4375 C2.59785156 11.46619141 2.32070313 10.49488281 2.03515625 9.49414062 C0 2.28086515 0 2.28086515 0 0 Z " fill="#A6C27E" transform="translate(629,294)"/>
<path d="M0 0 C2.2477975 2.05233685 3.0022242 3.00667261 4 6 C6.64 6 9.28 6 12 6 C12 7.32 12 8.64 12 10 C4.65840708 10.36106195 4.65840708 10.36106195 2.0625 8.9375 C0.48831335 6.06692435 0.30426913 3.2252528 0 0 Z " fill="#4A5A70" transform="translate(611,732)"/>
<path d="M0 0 C0.33 0 0.66 0 1 0 C0.86183041 3.64616671 0.71318466 7.29183074 0.5625 10.9375 C0.52318359 11.97841797 0.48386719 13.01933594 0.44335938 14.09179688 C0.40146484 15.08115234 0.35957031 16.07050781 0.31640625 17.08984375 C0.27974854 18.00628662 0.24309082 18.92272949 0.20532227 19.86694336 C0 22 0 22 -1 23 C-1.28101946 25.31952569 -1.44782625 27.63885514 -1.62109375 29.96875 C-1.74613281 30.6390625 -1.87117187 31.309375 -2 32 C-2.99 32.495 -2.99 32.495 -4 33 C-3.52356626 28.62469789 -3.04337194 24.24981637 -2.5625 19.875 C-2.42779297 18.6375 -2.29308594 17.4 -2.15429688 16.125 C-2.02216797 14.92617188 -1.89003906 13.72734375 -1.75390625 12.4921875 C-1.63345947 11.39245605 -1.5130127 10.29272461 -1.38891602 9.15966797 C-1.01079156 6.08767381 -0.53221997 3.04871665 0 0 Z " fill="#E6F4D9" transform="translate(651,351)"/>
<path d="M0 0 C0.99 0 1.98 0 3 0 C3 4.95 3 9.9 3 15 C2.01 15 1.02 15 0 15 C0 10.05 0 5.1 0 0 Z " fill="#445772" transform="translate(307,727)"/>
<path d="M0 0 C1.32 0.66 2.64 1.32 4 2 C3.34 2.66 2.68 3.32 2 4 C2.33 4.66 2.66 5.32 3 6 C2.401875 6.350625 1.80375 6.70125 1.1875 7.0625 C-1.80464755 9.71268783 -2.59537051 12.27773184 -4 16 C-4.66 16 -5.32 16 -6 16 C-4.43551329 10.3856009 -2.83604813 5.13189662 0 0 Z " fill="#9AB873" transform="translate(621,336)"/>
<path d="M0 0 C-1.20381448 2.49361571 -2.45428722 4.68143083 -4 7 C-2.68 7 -1.36 7 0 7 C0 7.66 0 8.32 0 9 C-3.3 8.67 -6.6 8.34 -10 8 C-10 7.01 -10 6.02 -10 5 C-8.3203125 3.61328125 -8.3203125 3.61328125 -6.125 2.3125 C-5.40570312 1.87550781 -4.68640625 1.43851562 -3.9453125 0.98828125 C-2 0 -2 0 0 0 Z " fill="#EAF7DF" transform="translate(562,306)"/>
<path d="M0 0 C0.99 0 1.98 0 3 0 C3.66 2.64 4.32 5.28 5 8 C5.66 8 6.32 8 7 8 C7 8.99 7 9.98 7 11 C6.34 11 5.68 11 5 11 C5 11.99 5 12.98 5 14 C5.99 14.33 6.98 14.66 8 15 C6.68 15 5.36 15 4 15 C3.32779649 13.06441401 2.66241923 11.12645628 2 9.1875 C1.62875 8.10855469 1.2575 7.02960937 0.875 5.91796875 C0 3 0 3 0 0 Z " fill="#5D6D82" transform="translate(700,728)"/>
<path d="M0 0 C5.28 0 10.56 0 16 0 C16 0.66 16 1.32 16 2 C14.73542969 2.05607422 14.73542969 2.05607422 13.4453125 2.11328125 C11.80175781 2.21189453 11.80175781 2.21189453 10.125 2.3125 C9.03445313 2.37050781 7.94390625 2.42851563 6.8203125 2.48828125 C5.42425781 2.74158203 5.42425781 2.74158203 4 3 C3.01 4.485 3.01 4.485 2 6 C1.34 6 0.68 6 0 6 C0 4.02 0 2.04 0 0 Z " fill="#475772" transform="translate(747,602)"/>
<path d="M0 0 C1.65 0.33 3.3 0.66 5 1 C5 5.95 5 10.9 5 16 C4.67 16 4.34 16 4 16 C4 12.37 4 8.74 4 5 C2.35 5 0.7 5 -1 5 C-1 8.63 -1 12.26 -1 16 C-1.33 16 -1.66 16 -2 16 C-2 12.04 -2 8.08 -2 4 C-0.68 4 0.64 4 2 4 C2 3.01 2 2.02 2 1 C1.34 0.67 0.68 0.34 0 0 Z " fill="#D1DAE7" transform="translate(320,726)"/>
<path d="M0 0 C0.66 0 1.32 0 2 0 C2.83854735 6.90188971 3.01593448 13.11422188 2 20 C1.34 20 0.68 20 0 20 C0 13.4 0 6.8 0 0 Z " fill="#283C54" transform="translate(737,722)"/>
<path d="M0 0 C0.66 0.33 1.32 0.66 2 1 C0.25 6.75 0.25 6.75 -2 9 C-4.625 9.125 -4.625 9.125 -7 9 C-7 7.35 -7 5.7 -7 4 C-6.401875 3.896875 -5.80375 3.79375 -5.1875 3.6875 C-2.71756736 2.91123545 -1.67748765 1.92911079 0 0 Z " fill="#314D7A" transform="translate(718,692)"/>
<path d="M0 0 C-0.66 2.97 -1.32 5.94 -2 9 C-2.66 7.68 -3.32 6.36 -4 5 C-8.455 7.97 -8.455 7.97 -13 11 C-11.82630273 6.30521094 -10.9401358 5.85363494 -7.0625 3.25 C-6.16660156 2.63640625 -5.27070312 2.0228125 -4.34765625 1.390625 C-2 0 -2 0 0 0 Z " fill="#D9E6CE" transform="translate(536,347)"/>
<path d="M0 0 C1.48828125 1.14453125 1.48828125 1.14453125 3 3 C3.29296875 5.69921875 3.29296875 5.69921875 3.1875 8.6875 C3.16042969 9.68136719 3.13335938 10.67523437 3.10546875 11.69921875 C3.07066406 12.45847656 3.03585937 13.21773437 3 14 C2.01 14 1.02 14 0 14 C-0.06058594 13.30132813 -0.12117187 12.60265625 -0.18359375 11.8828125 C-0.26738281 10.97273437 -0.35117187 10.06265625 -0.4375 9.125 C-0.51871094 8.22007812 -0.59992187 7.31515625 -0.68359375 6.3828125 C-0.86989285 3.98889139 -0.86989285 3.98889139 -2 2 C-1.34 2 -0.68 2 0 2 C0 1.34 0 0.68 0 0 Z " fill="#49566C" transform="translate(520,728)"/>
<path d="M0 0 C-1.32 3.63 -2.64 7.26 -4 11 C-6.18975773 7.71536341 -6.99806563 4.79303725 -8 1 C-5.29120665 -0.35439668 -2.99066732 -0.06501451 0 0 Z " fill="#EBF3F6" transform="translate(721,727)"/>
<path d="M0 0 C0.66 0.66 1.32 1.32 2 2 C1.2575 2.556875 1.2575 2.556875 0.5 3.125 C-1.59755514 5.74694393 -1.21743835 7.73842472 -1 11 C-1.66 11 -2.32 11 -3 11 C-3.33 11.99 -3.66 12.98 -4 14 C-4.66 13.67 -5.32 13.34 -6 13 C-5.67 12.67 -5.34 12.34 -5 12 C-4.95684856 9.32461085 -4.95319559 6.67305179 -5 4 C-5 3.01 -5 2.02 -5 1 C-2.625 0.375 -2.625 0.375 0 0 Z " fill="#E0E7EC" transform="translate(546,727)"/>
<path d="M0 0 C0.66 0.33 1.32 0.66 2 1 C0.28133968 2.9684831 -1.44884125 4.9243097 -3.1875 6.875 C-3.67025391 7.43058594 -4.15300781 7.98617188 -4.65039062 8.55859375 C-7.52249465 11.75838749 -9.74502322 13.77095735 -14 15 C-9.59156563 9.70987876 -4.92440206 4.81191572 0 0 Z " fill="#2B3152" transform="translate(453,488)"/>
<path d="M0 0 C0.33 0.99 0.66 1.98 1 3 C0.34 3 -0.32 3 -1 3 C-1 3.66 -1 4.32 -1 5 C-3.64 5.33 -6.28 5.66 -9 6 C-9.66 4.68 -10.32 3.36 -11 2 C-7.37 2 -3.74 2 0 2 C0 1.34 0 0.68 0 0 Z " fill="#D7DEE6" transform="translate(345,734)"/>
<path d="M0 0 C0.99 0.33 1.98 0.66 3 1 C1.0894422 2.96463019 -0.82795314 4.92166401 -2.75 6.875 C-3.55824219 7.70837891 -3.55824219 7.70837891 -4.3828125 8.55859375 C-9.37208686 13.60871292 -9.37208686 13.60871292 -13 15 C-13.33 14.34 -13.66 13.68 -14 13 C-13.34 13 -12.68 13 -12 13 C-12 12.34 -12 11.68 -12 11 C-11.443125 10.773125 -10.88625 10.54625 -10.3125 10.3125 C-5.95902782 7.84161038 -2.85362385 4.05514968 0 0 Z " fill="#8E909C" transform="translate(448,490)"/>
<path d="M0 0 C0 3.61029169 -0.96092582 6.55806676 -2 10 C-2.99 10 -3.98 10 -5 10 C-5.33 8.35 -5.66 6.7 -6 5 C-7.32 4.67 -8.64 4.34 -10 4 C-9.67 3.34 -9.34 2.68 -9 2 C-7.02 2.99 -5.04 3.98 -3 5 C-2.814375 4.0409375 -2.814375 4.0409375 -2.625 3.0625 C-2.41875 2.381875 -2.2125 1.70125 -2 1 C-1.34 0.67 -0.68 0.34 0 0 Z " fill="#9EC073" transform="translate(646,342)"/>
<path d="M0 0 C8.89884984 0.47264953 17.33124459 1.96104717 26 4 C26 4.33 26 4.66 26 5 C20.55306686 5.09688221 15.36095333 5.12862175 10 4 C10 3.34 10 2.68 10 2 C8.3603125 2.061875 8.3603125 2.061875 6.6875 2.125 C3 2 3 2 0 0 Z " fill="#A0C073" transform="translate(566,239)"/>
<path d="M0 0 C0.20625 0.61875 0.4125 1.2375 0.625 1.875 C2.54775888 4.84653645 4.66594527 5.13024659 8 6 C8 6.66 8 7.32 8 8 C8.99 8 9.98 8 11 8 C11 8.66 11 9.32 11 10 C9.265625 10.74609375 9.265625 10.74609375 7 11 C4.859375 9.34765625 4.859375 9.34765625 2.75 7.0625 C2.04359375 6.31097656 1.3371875 5.55945313 0.609375 4.78515625 C0.07828125 4.19605469 -0.4528125 3.60695313 -1 3 C-0.67 2.01 -0.34 1.02 0 0 Z " fill="#393D5E" transform="translate(437,503)"/>
<path d="M0 0 C8.25 0 16.5 0 25 0 C24.67 0.66 24.34 1.32 24 2 C13.605 2.495 13.605 2.495 3 3 C3 2.34 3 1.68 3 1 C2.01 0.67 1.02 0.34 0 0 Z " fill="#DCE1E5" transform="translate(485,361)"/>
<path d="M0 0 C1.35862973 3.90480249 0.89469712 7.7101776 0.5625 11.75 C0.51029297 12.44738281 0.45808594 13.14476562 0.40429688 13.86328125 C0.27525928 15.57596203 0.13840386 17.28805066 0 19 C4.455 18.01 4.455 18.01 9 17 C6.7448078 19.2551922 4.9952413 19.97723468 2 21 C1.01 21 0.02 21 -1 21 C-1.22155127 18.06294869 -1.42774197 15.12619637 -1.625 12.1875 C-1.68945312 11.35412109 -1.75390625 10.52074219 -1.8203125 9.66210938 C-1.871875 8.85966797 -1.9234375 8.05722656 -1.9765625 7.23046875 C-2.02893066 6.49207764 -2.08129883 5.75368652 -2.13525391 4.99291992 C-2 3 -2 3 0 0 Z " fill="#8BB078" transform="translate(513,338)"/>
<path d="M0 0 C1.42600325 4.27800976 -0.54362936 6.86765922 -2.4375 10.6875 C-2.77587891 11.38939453 -3.11425781 12.09128906 -3.46289062 12.81445312 C-4.29981348 14.54723706 -5.14877393 16.27419752 -6 18 C-7.29522558 14.41322148 -6.70762204 12.46449298 -5.25 9 C-4.73179687 7.7315625 -4.73179687 7.7315625 -4.203125 6.4375 C-3.02031223 4.04115206 -1.6728256 2.07661109 0 0 Z " fill="#323D5B" transform="translate(456,433)"/>
<path d="M0 0 C1.17671827 4.70687308 0.2341394 6.93639551 -2 11 C-3.5825922 13.41380532 -5.25866581 15.69390878 -7 18 C-7.66 17.67 -8.32 17.34 -9 17 C-6.03 11.39 -3.06 5.78 0 0 Z " fill="#8EB26B" transform="translate(604,373)"/>
<path d="M0 0 C0.99 0.33 1.98 0.66 3 1 C3 7.6 3 14.2 3 21 C2.67 21 2.34 21 2 21 C2 16.05 2 11.1 2 6 C1.34 6 0.68 6 0 6 C-0.38218767 4.34385343 -0.71395102 2.67542976 -1 1 C-0.67 0.67 -0.34 0.34 0 0 Z " fill="#A7AFBB" transform="translate(308,721)"/>
<path d="M0 0 C2.475 0.99 2.475 0.99 5 2 C5 5.33333333 5 8.66666667 5 12 C4.34 12 3.68 12 3 12 C2.34 12.66 1.68 13.32 1 14 C1 12.68 1 11.36 1 10 C1.66 10 2.32 10 3 10 C2.505 8.906875 2.01 7.81375 1.5 6.6875 C0 3 0 3 0 0 Z " fill="#EBF1F4" transform="translate(343,727)"/>
<path d="M0 0 C0.33 0 0.66 0 1 0 C1 5.94 1 11.88 1 18 C0.67 18 0.34 18 0 18 C-0.33 14.37 -0.66 10.74 -1 7 C-1.33 9.97 -1.66 12.94 -2 16 C-2.66 15.67 -3.32 15.34 -4 15 C-4.08096803 13.54257537 -4.13917774 12.08387193 -4.1875 10.625 C-4.22230469 9.81289063 -4.25710938 9.00078125 -4.29296875 8.1640625 C-4.19628906 7.44992187 -4.09960938 6.73578125 -4 6 C-3.01 5.34 -2.02 4.68 -1 4 C-0.27617533 1.94074861 -0.27617533 1.94074861 0 0 Z " fill="#E5E9F0" transform="translate(443,724)"/>
<path d="M0 0 C0.99 0 1.98 0 3 0 C3.99 3.3 4.98 6.6 6 10 C4.35 10.33 2.7 10.66 1 11 C1.04125 10.0925 1.0825 9.185 1.125 8.25 C1.00468444 5.1217954 0.6085292 3.61385994 -1 1 C-0.67 0.67 -0.34 0.34 0 0 Z " fill="#E1EAF0" transform="translate(697,728)"/>
<path d="M0 0 C-0.66 1.65 -1.32 3.3 -2 5 C-1.67 4.67 -1.34 4.34 -1 4 C-0.67 4.99 -0.34 5.98 0 7 C-1.98 7 -3.96 7 -6 7 C-6 4.69 -6 2.38 -6 0 C-3.50907189 -1.24546405 -2.58919267 -0.7767578 0 0 Z " fill="#425D84" transform="translate(729,707)"/>
<path d="M0 0 C0.33 0 0.66 0 1 0 C1.13727497 4.94189902 0.52001426 8.70115214 -2 13 C-2.99 13.495 -2.99 13.495 -4 14 C-4.88855164 11.00446363 -5.19605797 9.48360967 -4.00390625 6.54296875 C-3.52824219 5.76566406 -3.05257812 4.98835938 -2.5625 4.1875 C-1.85287109 3.00220703 -1.85287109 3.00220703 -1.12890625 1.79296875 C-0.75636719 1.20128906 -0.38382813 0.60960937 0 0 Z " fill="#82A968" transform="translate(517,399)"/>
<path d="M0 0 C2.6646869 3.04535646 3.41194472 4.96071111 3.375 9 C3.38273438 9.845625 3.39046875 10.69125 3.3984375 11.5625 C2.9291142 14.43365432 1.89489101 15.83441027 0 18 C0.01160156 17.09636719 0.02320313 16.19273437 0.03515625 15.26171875 C0.04417969 14.08222656 0.05320312 12.90273438 0.0625 11.6875 C0.07410156 10.51574219 0.08570313 9.34398437 0.09765625 8.13671875 C0.14899898 4.96940805 0.14899898 4.96940805 -1 2 C-0.67 1.34 -0.34 0.68 0 0 Z " fill="#DAE8CB" transform="translate(512,322)"/>
<path d="M0 0 C0.66 0 1.32 0 2 0 C2 5.28 2 10.56 2 16 C1.34 15.67 0.68 15.34 0 15 C-1.40764427 9.88129357 -0.7455819 5.16172083 0 0 Z " fill="#293C57" transform="translate(640,722)"/>
<path d="M0 0 C0.66 0.33 1.32 0.66 2 1 C-1.3 4.96 -4.6 8.92 -8 13 C-8.33 12.34 -8.66 11.68 -9 11 C-8.22265625 9.2734375 -8.22265625 9.2734375 -7.0625 7.375 C-6.381875 6.26125 -5.70125 5.1475 -5 4 C-4.34 4 -3.68 4 -3 4 C-2.67 3.01 -2.34 2.02 -2 1 C-1.34 0.67 -0.68 0.34 0 0 Z " fill="#A4A9B5" transform="translate(479,455)"/>
<path d="M0 0 C0.33 0 0.66 0 1 0 C1.32594963 7.00791703 -0.47303026 10.71853531 -5 16 C-3.90301833 10.30860098 -2.45946923 5.25432063 0 0 Z " fill="#2C395A" transform="translate(442,427)"/>
<path d="M0 0 C1.22589844 0.01353516 1.22589844 0.01353516 2.4765625 0.02734375 C3.41628906 0.04474609 3.41628906 0.04474609 4.375 0.0625 C4.045 1.3825 3.715 2.7025 3.375 4.0625 C2.09625 4.124375 0.8175 4.18625 -0.5 4.25 C-1.21929687 4.28480469 -1.93859375 4.31960938 -2.6796875 4.35546875 C-3.32164062 4.25878906 -3.96359375 4.16210938 -4.625 4.0625 C-5.285 3.0725 -5.945 2.0825 -6.625 1.0625 C-4.21954362 -0.14022819 -2.67503047 -0.03821472 0 0 Z " fill="#45586E" transform="translate(399.625,737.9375)"/>
<path d="M0 0 C0.99 0.33 1.98 0.66 3 1 C2.89171875 1.85271484 2.89171875 1.85271484 2.78125 2.72265625 C2.20416899 7.52364968 1.89714162 12.16565627 2 17 C1.34 17 0.68 17 0 17 C0 11.39 0 5.78 0 0 Z " fill="#2A3F5B" transform="translate(528,730)"/>
<path d="M0 0 C0.598125 0.226875 1.19625 0.45375 1.8125 0.6875 C0.8534375 1.4609375 0.8534375 1.4609375 -0.125 2.25 C-2.74541681 5.34685623 -2.88139817 7.70817623 -3.1875 11.6875 C-3.8475 11.3575 -4.5075 11.0275 -5.1875 10.6875 C-5.55141205 3.28795489 -5.55141205 3.28795489 -3.9375 0.625 C-2.1875 -0.3125 -2.1875 -0.3125 0 0 Z " fill="#354156" transform="translate(413.1875,728.3125)"/>
<path d="M0 0 C0.66 0.33 1.32 0.66 2 1 C-0.64 5.29 -3.28 9.58 -6 14 C-6.33 12.68 -6.66 11.36 -7 10 C-5.125 6.9375 -5.125 6.9375 -3 4 C-2.67 3.01 -2.34 2.02 -2 1 C-1.34 0.67 -0.68 0.34 0 0 Z " fill="#84A76C" transform="translate(538,402)"/>
<path d="M0 0 C3.63 0 7.26 0 11 0 C10.01 0.495 10.01 0.495 9 1 C9 1.66 9 2.32 9 3 C6.1875 3.625 6.1875 3.625 3 4 C2.01 3.34 1.02 2.68 0 2 C0 1.34 0 0.68 0 0 Z " fill="#CED9E1" transform="translate(453,736)"/>
<path d="M0 0 C0.99 1.32 1.98 2.64 3 4 C2.34 4.66 1.68 5.32 1 6 C0.1624193 8.04788482 -0.52034987 10.1236602 -1.21875 12.22265625 C-2 14 -2 14 -4 15 C-3.52229477 13.06213915 -3.04278429 11.12472326 -2.5625 9.1875 C-2.29566406 8.10855469 -2.02882813 7.02960937 -1.75390625 5.91796875 C-1.23922588 3.9259157 -0.65062825 1.95188476 0 0 Z " fill="#3E5474" transform="translate(700,604)"/>
<path d="M0 0 C-1.46525629 3.97712421 -3.01775116 6.01775116 -6 9 C-6.99 9.33 -7.98 9.66 -9 10 C-8.42110619 6.71245489 -7.45171589 5.06327505 -5.0625 2.75 C-4.53785156 2.22921875 -4.01320313 1.7084375 -3.47265625 1.171875 C-2 0 -2 0 0 0 Z " fill="#6EA05A" transform="translate(548,456)"/>
<path d="M0 0 C0.33 0.66 0.66 1.32 1 2 C1.66 2 2.32 2 3 2 C3 1.34 3 0.68 3 0 C3.99 0.33 4.98 0.66 6 1 C5.67 1.66 5.34 2.32 5 3 C2.19842552 3.93385816 0.34552197 4.16354595 -2.5625 4.1875 C-3.74005859 4.20876953 -3.74005859 4.20876953 -4.94140625 4.23046875 C-7 4 -7 4 -9 2 C-6.94921875 1.77213542 -4.8984375 1.54427083 -2.84765625 1.31640625 C-0.98859771 1.18113386 -0.98859771 1.18113386 0 0 Z " fill="#C8CEDA" transform="translate(417,397)"/>
<path d="M0 0 C5.56100259 -0.28276284 8.30051499 -0.17532771 13 3 C15.69254991 3.70670728 15.69254991 3.70670728 18 4 C17.67 4.66 17.34 5.32 17 6 C16.35933594 5.80664062 15.71867188 5.61328125 15.05859375 5.4140625 C10.04889015 3.9059252 5.03460143 2.42282214 0 1 C0 0.67 0 0.34 0 0 Z " fill="#E6F4D5" transform="translate(611,249)"/>
<path d="M0 0 C4.95 0.99 4.95 0.99 10 2 C10 2.66 10 3.32 10 4 C7.04335481 5.4783226 4.25770263 5.06032783 1 5 C0.67 3.35 0.34 1.7 0 0 Z " fill="#4C5D73" transform="translate(587,737)"/>
<path d="M0 0 C0.99 0 1.98 0 3 0 C4.32 3.63 5.64 7.26 7 11 C6.01 11 5.02 11 4 11 C2.68 7.37 1.36 3.74 0 0 Z " fill="#49566D" transform="translate(560,728)"/>
<path d="M0 0 C4.95 0 9.9 0 15 0 C15.66 2.64 16.32 5.28 17 8 C16.34 8 15.68 8 15 8 C14.7525 7.030625 14.505 6.06125 14.25 5.0625 C12.32917374 1.73936886 12.32917374 1.73936886 9.12890625 1.37890625 C6.0778553 1.14531578 3.05957276 1.00948705 0 1 C0 0.67 0 0.34 0 0 Z " fill="#495B77" transform="translate(701,602)"/>
<path d="M0 0 C0.66 0.33 1.32 0.66 2 1 C-0.475 4.465 -0.475 4.465 -3 8 C-4.32 7.34 -5.64 6.68 -7 6 C-7 4.68 -7 3.36 -7 2 C-5.515 2.99 -5.515 2.99 -4 4 C-2.68 3.34 -1.36 2.68 0 2 C0 1.34 0 0.68 0 0 Z " fill="#383B5B" transform="translate(427,482)"/>
<path d="M0 0 C0.66 0.33 1.32 0.66 2 1 C-0.31 5.29 -2.62 9.58 -5 14 C-5.92538169 10.29847322 -6.08174162 9.36541838 -5 6 C-4.34 6 -3.68 6 -3 6 C-2.690625 5.38125 -2.38125 4.7625 -2.0625 4.125 C-1.375 2.75 -0.6875 1.375 0 0 Z " fill="#8CAC73" transform="translate(546,388)"/>
<path d="M0 0 C0 0.99 0 1.98 0 3 C-3.375 3.625 -3.375 3.625 -7 4 C-7.66 3.34 -8.32 2.68 -9 2 C-8.34 2 -7.68 2 -7 2 C-7 1.34 -7 0.68 -7 0 C-4.3333581 -1.33332095 -2.83319697 -0.67102033 0 0 Z " fill="#A3B2BE" transform="translate(470,739)"/>
<path d="M0 0 C3.63 0 7.26 0 11 0 C10.67 0.99 10.34 1.98 10 3 C8.72125 3.061875 7.4425 3.12375 6.125 3.1875 C5.40570312 3.22230469 4.68640625 3.25710938 3.9453125 3.29296875 C3.30335938 3.19628906 2.66140625 3.09960938 2 3 C1.34 2.01 0.68 1.02 0 0 Z " fill="#E8F0F5" transform="translate(587,736)"/>
<path d="M0 0 C4.29 0 8.58 0 13 0 C13 0.66 13 1.32 13 2 C12.22914063 2.06058594 11.45828125 2.12117187 10.6640625 2.18359375 C9.66117187 2.26738281 8.65828125 2.35117187 7.625 2.4375 C6.12839844 2.55931641 6.12839844 2.55931641 4.6015625 2.68359375 C2.02072387 2.84965626 2.02072387 2.84965626 0 4 C0 2.68 0 1.36 0 0 Z " fill="#37475D" transform="translate(482,723)"/>
<path d="M0 0 C0.66 0 1.32 0 2 0 C2 3.63 2 7.26 2 11 C-0.64 11 -3.28 11 -6 11 C-6 10.67 -6 10.34 -6 10 C-4.35 9.67 -2.7 9.34 -1 9 C-0.67 6.03 -0.34 3.06 0 0 Z " fill="#2E415F" transform="translate(502,635)"/>
<path d="M0 0 C0 5.94 0 11.88 0 18 C-0.66 17.67 -1.32 17.34 -2 17 C-1.67 12.71 -1.34 8.42 -1 4 C-2.65 4.33 -4.3 4.66 -6 5 C-1.125 0 -1.125 0 0 0 Z " fill="#456F80" transform="translate(512,342)"/>
<path d="M0 0 C1.23556641 0.01740234 1.23556641 0.01740234 2.49609375 0.03515625 C3.32238281 0.04417969 4.14867187 0.05320312 5 0.0625 C5.63808594 0.07410156 6.27617188 0.08570313 6.93359375 0.09765625 C6.93359375 0.42765625 6.93359375 0.75765625 6.93359375 1.09765625 C5.26296875 1.40703125 5.26296875 1.40703125 3.55859375 1.72265625 C-0.3323982 2.71393926 -0.3323982 2.71393926 -1.50390625 6.22265625 C-1.68953125 7.17140625 -1.87515625 8.12015625 -2.06640625 9.09765625 C-2.72640625 8.43765625 -3.38640625 7.77765625 -4.06640625 7.09765625 C-3.35835074 0.15871223 -3.35835074 0.15871223 0 0 Z " fill="#DFE8E9" transform="translate(686.06640625,726.90234375)"/>
<path d="M0 0 C-4.95 2.97 -4.95 2.97 -10 6 C-8.54945055 0.43956044 -8.54945055 0.43956044 -6.125 -1.5 C-4 -2 -4 -2 0 0 Z " fill="#98B968" transform="translate(574,298)"/>
<path d="M0 0 C0.66 0 1.32 0 2 0 C2 2.31 2 4.62 2 7 C-0.95664519 8.4783226 -3.74229737 8.06032783 -7 8 C-7 7.67 -7 7.34 -7 7 C-5.02 7 -3.04 7 -1 7 C-1.020625 6.030625 -1.04125 5.06125 -1.0625 4.0625 C-1 1 -1 1 0 0 Z " fill="#566982" transform="translate(668,732)"/>
<path d="M0 0 C2.97 0.495 2.97 0.495 6 1 C6 1.99 6 2.98 6 4 C3.36 4 0.72 4 -2 4 C-1.34 2.68 -0.68 1.36 0 0 Z " fill="#D9DEE8" transform="translate(455,730)"/>
<path d="M0 0 C0.33 0.99 0.66 1.98 1 3 C0.03114628 4.68496298 -0.96986723 6.35178756 -2 8 C-2 8.99 -2 9.98 -2 11 C-2.99 11 -3.98 11 -5 11 C-5.33 11.66 -5.66 12.32 -6 13 C-5.51675181 7.84535266 -2.81389239 4.18449681 0 0 Z " fill="#9EA1AA" transform="translate(443,461)"/>
<path d="M0 0 C0.66 0.99 1.32 1.98 2 3 C1.42578125 5.41015625 1.42578125 5.41015625 0.3125 8.0625 C-0.04199219 8.94035156 -0.39648438 9.81820313 -0.76171875 10.72265625 C-2 13 -2 13 -5 15 C-1.92482916 4.44191344 -1.92482916 4.44191344 0 0 Z " fill="#8AB06F" transform="translate(529,371)"/>
<path d="M0 0 C1.65 0.33 3.3 0.66 5 1 C5.33 1.99 5.66 2.98 6 4 C3.36 4 0.72 4 -2 4 C-1.34 2.68 -0.68 1.36 0 0 Z " fill="#DDE3EA" transform="translate(336,730)"/>
<path d="M0 0 C1.65 0.33 3.3 0.66 5 1 C5.33 1.99 5.66 2.98 6 4 C3.36 4 0.72 4 -2 4 C-1.34 2.68 -0.68 1.36 0 0 Z " fill="#E2E6EE" transform="translate(616,730)"/>
<path d="M0 0 C1.65 0.33 3.3 0.66 5 1 C5.33 1.99 5.66 2.98 6 4 C3.36 4 0.72 4 -2 4 C-1.34 2.68 -0.68 1.36 0 0 Z " fill="#D9DDE6" transform="translate(397,730)"/>
<path d="M0 0 C0.33 1.32 0.66 2.64 1 4 C-0.65 5.32 -2.3 6.64 -4 8 C-4.66 7.34 -5.32 6.68 -6 6 C-4.02 4.02 -2.04 2.04 0 0 Z " fill="#373E5C" transform="translate(459,481)"/>
<path d="M0 0 C3.20148213 2.13432142 3.52206739 2.68419896 4.6875 6.125 C4.93886719 6.84945312 5.19023438 7.57390625 5.44921875 8.3203125 C5.72185547 9.15175781 5.72185547 9.15175781 6 10 C1.125 8.25 1.125 8.25 0 6 C-0.039992 4.00039988 -0.04346799 1.99952758 0 0 Z " fill="#425169" transform="translate(684,732)"/>
<path d="M0 0 C0.66 0 1.32 0 2 0 C2.33 0.99 2.66 1.98 3 3 C1.6875 4.9375 1.6875 4.9375 0 7 C-0.68697962 8.32298195 -1.35702283 9.65508269 -2 11 C-2.05399736 9.54207116 -2.09279177 8.08357288 -2.125 6.625 C-2.15980469 5.40683594 -2.15980469 5.40683594 -2.1953125 4.1640625 C-2 2 -2 2 0 0 Z " fill="#D3DEE4" transform="translate(741,731)"/>
<path d="M0 0 C-3 2 -3 2 -5 2.9375 C-7.08295994 4.04407247 -8.4218806 5.26406866 -10 7 C-10.1875 4.625 -10.1875 4.625 -10 2 C-6.3558226 -0.4294516 -4.28758728 -0.16179575 0 0 Z " fill="#34405B" transform="translate(695,728)"/>
<path d="M0 0 C6.875 0.875 6.875 0.875 8 2 C8.04080783 3.99958364 8.04254356 6.00045254 8 8 C7.13375 6.7934375 7.13375 6.7934375 6.25 5.5625 C4.01873107 3.02133261 3.25543229 2.34879632 0 2 C0 1.34 0 0.68 0 0 Z " fill="#353F5B" transform="translate(550,728)"/>
<path d="M0 0 C0.66 0.33 1.32 0.66 2 1 C0.90536178 2.17561146 -0.20107186 3.3402489 -1.3125 4.5 C-1.92738281 5.1496875 -2.54226563 5.799375 -3.17578125 6.46875 C-5 8 -5 8 -8 8 C-7.34 6.68 -6.68 5.36 -6 4 C-5.01 4 -4.02 4 -3 4 C-2.67 3.01 -2.34 2.02 -2 1 C-1.34 0.67 -0.68 0.34 0 0 Z " fill="#77A063" transform="translate(584,507)"/>
<path d="M0 0 C0.33 1.32 0.66 2.64 1 4 C0.01 4.495 0.01 4.495 -1 5 C-1.309375 5.61875 -1.61875 6.2375 -1.9375 6.875 C-3.02905268 9.05810535 -4.20711515 10.37010468 -6 12 C-6.66 11.67 -7.32 11.34 -8 11 C-5.36 7.37 -2.72 3.74 0 0 Z " fill="#8F919C" transform="translate(436,472)"/>
<path d="M0 0 C0.99 0 1.98 0 3 0 C1.55049545 3.7910119 -0.15172566 7.3874638 -2 11 C-3.26426661 7.20720018 -2.40145184 5.65934648 -1 2 C-0.67 1.34 -0.34 0.68 0 0 Z " fill="#B4B9C5" transform="translate(427,455)"/>
<path d="M0 0 C1 3 1 3 -0.21484375 5.69921875 C-0.78332031 6.68535156 -1.35179687 7.67148437 -1.9375 8.6875 C-2.50339844 9.68136719 -3.06929687 10.67523438 -3.65234375 11.69921875 C-4.31943359 12.83810547 -4.31943359 12.83810547 -5 14 C-6 11 -6 11 -4.75 8.125 C-3.21470142 5.38339539 -1.65115009 2.67329062 0 0 Z " fill="#CAD8C3" transform="translate(517,396)"/>
<path d="M0 0 C-6.47913427 2.35001386 -11.20292787 3.38458877 -18 2 C-18 1.67 -18 1.34 -18 1 C-15.75152519 0.63627613 -13.50113812 0.28435904 -11.25 -0.0625 C-9.99703125 -0.25972656 -8.7440625 -0.45695313 -7.453125 -0.66015625 C-4.49983411 -0.95080818 -2.7397586 -0.98935727 0 0 Z " fill="#406D92" transform="translate(474,237)"/>
<path d="M0 0 C3.63 0 7.26 0 11 0 C11 0.66 11 1.32 11 2 C8.24921116 2.91692961 6.64051087 3.10886083 3.8125 3.0625 C1.9253125 3.0315625 1.9253125 3.0315625 0 3 C0 2.01 0 1.02 0 0 Z " fill="#2F4669" transform="translate(659,739)"/>
<path d="M0 0 C0.33 0 0.66 0 1 0 C1.33 2.31 1.66 4.62 2 7 C1.01 7 0.02 7 -1 7 C-0.67 4.69 -0.34 2.38 0 0 Z M-3 6 C-2.34 6.66 -1.68 7.32 -1 8 C-5.30769231 11.07692308 -5.30769231 11.07692308 -8.8125 10.6875 C-9.534375 10.460625 -10.25625 10.23375 -11 10 C-11 9.67 -11 9.34 -11 9 C-9.865625 8.87625 -8.73125 8.7525 -7.5625 8.625 C-6.386875 8.41875 -5.21125 8.2125 -4 8 C-3.67 7.34 -3.34 6.68 -3 6 Z " fill="#CCD6DF" transform="translate(627,733)"/>
<path d="M0 0 C0.33 0 0.66 0 1 0 C1.33 1.65 1.66 3.3 2 5 C3.65 5.33 5.3 5.66 7 6 C7.33 6.99 7.66 7.98 8 9 C5.66705225 9.04241723 3.33297433 9.04092937 1 9 C0 8 0 8 -0.09765625 6.15234375 C-0.06510417 4.1015625 -0.03255208 2.05078125 0 0 Z " fill="#637081" transform="translate(410,733)"/>
<path d="M0 0 C0.75 1.6875 0.75 1.6875 1 4 C-0.75 6.75 -0.75 6.75 -3 9 C-3.99 9 -4.98 9 -6 9 C-4.47291037 5.56404834 -2.40072955 2.88087546 0 0 Z " fill="#80A869" transform="translate(560,439)"/>
<path d="M0 0 C0.66 0.33 1.32 0.66 2 1 C1.5206753 5.31392226 0.2542015 7.16569547 -3 10 C-3.33 9.34 -3.66 8.68 -4 8 C-3.22265625 6.0546875 -3.22265625 6.0546875 -2.0625 3.875 C-1.49208984 2.78832031 -1.49208984 2.78832031 -0.91015625 1.6796875 C-0.60980469 1.12539063 -0.30945313 0.57109375 0 0 Z " fill="#C8CDD5" transform="translate(509,408)"/>
<path d="M0 0 C0.66 0 1.32 0 2 0 C2.99 3.63 3.98 7.26 5 11 C0.07692308 6.81538462 0.07692308 6.81538462 -0.3125 2.6875 C-0.209375 1.800625 -0.10625 0.91375 0 0 Z " fill="#46617D" transform="translate(459,352)"/>
<path d="M0 0 C1.98 0 3.96 0 6 0 C5.67 1.32 5.34 2.64 5 4 C3.35 4.33 1.7 4.66 0 5 C0 3.35 0 1.7 0 0 Z " fill="#93A4AE" transform="translate(752,738)"/>
<path d="M0 0 C0.99 0.66 1.98 1.32 3 2 C3.1875 5.625 3.1875 5.625 3 9 C0.525 8.01 0.525 8.01 -2 7 C-1.34 4.69 -0.68 2.38 0 0 Z " fill="#DEE4EB" transform="translate(582,730)"/>
<path d="M0 0 C-1.32 0.33 -2.64 0.66 -4 1 C-4.66 3.31 -5.32 5.62 -6 8 C-6.66 8 -7.32 8 -8 8 C-7.74438677 5.6568787 -7.40729228 3.32156597 -7 1 C-4.53721199 -0.231394 -2.7204945 -0.07159196 0 0 Z " fill="#36425C" transform="translate(356,728)"/>
<path d="M0 0 C6.625 -0.25 6.625 -0.25 10 2 C10 2.66 10 3.32 10 4 C7.03 3.67 4.06 3.34 1 3 C0.67 2.01 0.34 1.02 0 0 Z " fill="#526377" transform="translate(660,723)"/>
<path d="M0 0 C1.11375 0.185625 1.11375 0.185625 2.25 0.375 C-1.07307692 5.175 -1.07307692 5.175 -4.5 6.1875 C-5.2425 6.249375 -5.985 6.31125 -6.75 6.375 C-3.42692308 0.46730769 -3.42692308 0.46730769 0 0 Z " fill="#71A05F" transform="translate(573.75,515.625)"/>
<path d="M0 0 C0.625 1.875 0.625 1.875 1 4 C-1 6 -1 6 -4 8 C-3.67 5.69 -3.34 3.38 -3 1 C-2.01 0.67 -1.02 0.34 0 0 Z " fill="#2D3A62" transform="translate(437,445)"/>
<path d="M0 0 C0.66 0.66 1.32 1.32 2 2 C1.51917969 2.39832031 1.03835938 2.79664063 0.54296875 3.20703125 C-1.37391825 5.43450247 -1.47741643 6.78834669 -1.6875 9.6875 C-1.75324219 10.49574219 -1.81898438 11.30398438 -1.88671875 12.13671875 C-1.92410156 12.75160156 -1.96148437 13.36648438 -2 14 C-2.33 14 -2.66 14 -3 14 C-3.08153933 12.41753293 -3.13943557 10.83383727 -3.1875 9.25 C-3.22230469 8.36828125 -3.25710938 7.4865625 -3.29296875 6.578125 C-2.94923684 3.55328417 -1.99772541 2.24416398 0 0 Z " fill="#D4D8E0" transform="translate(403,376)"/>
<path d="M0 0 C0.33 0 0.66 0 1 0 C1 1.65 1 3.3 1 5 C1.99 5.33 2.98 5.66 4 6 C3.67 8.31 3.34 10.62 3 13 C0.89172945 9.83759418 0.66182535 8.49342531 0.375 4.8125 C0.30023437 3.91144531 0.22546875 3.01039063 0.1484375 2.08203125 C0.09945312 1.39496094 0.05046875 0.70789063 0 0 Z " fill="#9BBB70" transform="translate(634,307)"/>
<path d="M0 0 C0 2.97 0 5.94 0 9 C-0.99 9 -1.98 9 -3 9 C-3 6.36 -3 3.72 -3 1 C-1 0 -1 0 0 0 Z " fill="#435268" transform="translate(513,733)"/>
<path d="M0 0 C0.99 0.33 1.98 0.66 3 1 C2.34 1 1.68 1 1 1 C1 3.31 1 5.62 1 8 C-1.31 8.33 -3.62 8.66 -6 9 C-6.33 8.34 -6.66 7.68 -7 7 C-5.02 6.67 -3.04 6.34 -1 6 C-0.67 4.02 -0.34 2.04 0 0 Z " fill="#515B72" transform="translate(359,722)"/>
<path d="M0 0 C0.66 0.33 1.32 0.66 2 1 C0.54550599 2.0055761 -0.91372443 3.00430435 -2.375 4 C-3.59316406 4.8353125 -3.59316406 4.8353125 -4.8359375 5.6875 C-7 7 -7 7 -9 7 C-8.375 5.125 -8.375 5.125 -7 3 C-3.9375 1.8125 -3.9375 1.8125 -1 1 C-0.67 0.67 -0.34 0.34 0 0 Z " fill="#3A486A" transform="translate(443,400)"/>
<path d="M0 0 C0.33 0 0.66 0 1 0 C1 2.97 1 5.94 1 9 C0.01 9 -0.98 9 -2 9 C-2 7.02 -2 5.04 -2 3 C-1.34 3 -0.68 3 0 3 C0 2.01 0 1.02 0 0 Z " fill="#4C5D75" transform="translate(604,733)"/>
<path d="M0 0 C0.33 0 0.66 0 1 0 C1.36923077 5.53846154 1.36923077 5.53846154 -0.5 7.875 C-1.2425 8.431875 -1.2425 8.431875 -2 9 C-2.99 8.34 -3.98 7.68 -5 7 C-4.34 6.67 -3.68 6.34 -3 6 C-1.90833725 4.06669397 -1.90833725 4.06669397 -1 2 C-0.67 1.34 -0.34 0.68 0 0 Z " fill="#44546B" transform="translate(558,732)"/>
<path d="M0 0 C1.32 0.33 2.64 0.66 4 1 C3.01 1.495 3.01 1.495 2 2 C2.33 3.32 2.66 4.64 3 6 C2.34 6 1.68 6 1 6 C0.67 6.99 0.34 7.98 0 9 C-0.66 6.69 -1.32 4.38 -2 2 C-1.34 2 -0.68 2 0 2 C0 1.34 0 0.68 0 0 Z " fill="#D3DCE5" transform="translate(559,727)"/>
<path d="M0 0 C2.475 0.495 2.475 0.495 5 1 C4.34 3.64 3.68 6.28 3 9 C2.67 9 2.34 9 2 9 C2 7.35 2 5.7 2 4 C1.34 4 0.68 4 0 4 C0 2.68 0 1.36 0 0 Z " fill="#D7DEE3" transform="translate(405,728)"/>
<path d="M0 0 C1.19882812 0.15275391 1.19882812 0.15275391 2.421875 0.30859375 C3.02515625 0.39238281 3.6284375 0.47617187 4.25 0.5625 C4.25 1.5525 4.25 2.5425 4.25 3.5625 C3.59 3.2325 2.93 2.9025 2.25 2.5625 C0.24042942 2.59439795 -1.76971076 2.62884162 -3.77734375 2.72265625 C-5.75 2.5625 -5.75 2.5625 -8.75 0.5625 C-5.62819599 -0.40411363 -3.22916205 -0.42738909 0 0 Z " fill="#D8E0E7" transform="translate(297.75,726.4375)"/>
<path d="M0 0 C0.8125 1.6875 0.8125 1.6875 1 4 C-1.125 6.75 -1.125 6.75 -4 9 C-6.8125 9.3125 -6.8125 9.3125 -9 9 C-8.4225 8.7525 -7.845 8.505 -7.25 8.25 C-3.51402637 6.17445909 -1.35608685 4.06826056 0 0 Z " fill="#D1DEEB" transform="translate(732,696)"/>
<path d="M0 0 C1.32 0.33 2.64 0.66 4 1 C1.87330165 3.33936818 -0.06224856 4.80653848 -3 6 C-3.99 6 -4.98 6 -6 6 C-6 5.34 -6 4.68 -6 4 C-4.02 3.67 -2.04 3.34 0 3 C0 2.01 0 1.02 0 0 Z " fill="#659259" transform="translate(536,540)"/>
<path d="M0 0 C0.33 0.99 0.66 1.98 1 3 C-0.14453125 5.0078125 -0.14453125 5.0078125 -1.8125 7.125 C-2.62654297 8.18074219 -2.62654297 8.18074219 -3.45703125 9.2578125 C-5 11 -5 11 -7 12 C-5.44298069 7.32894208 -2.91552627 3.91294315 0 0 Z " fill="#E7F1DC" transform="translate(615,471)"/>
<path d="M0 0 C0.66 0.33 1.32 0.66 2 1 C1.52797514 5.24822374 -0.96655518 7.19989709 -4 10 C-3.43454163 6.04179141 -2.19097652 3.3340947 0 0 Z " fill="#A2A5B0" transform="translate(467,467)"/>
<path d="M0 0 C0.33 0 0.66 0 1 0 C1.44041451 5.37305699 1.44041451 5.37305699 1 8 C-1.5 10 -1.5 10 -4 11 C-2.7874262 7.27566618 -1.49140021 3.62197194 0 0 Z " fill="#98B976" transform="translate(612,356)"/>
<path d="M0 0 C1.32 0.66 2.64 1.32 4 2 C3.34 2.66 2.68 3.32 2 4 C2.33 4.66 2.66 5.32 3 6 C2.01 6.33 1.02 6.66 0 7 C-1 6 -1 6 -1.125 3.5 C-1 1 -1 1 0 0 Z " fill="#93B46C" transform="translate(621,336)"/>
<path d="M0 0 C2 2 2 2 2.125 4.625 C2.08375 5.40875 2.0425 6.1925 2 7 C-1.465 5.02 -1.465 5.02 -5 3 C-4.360625 2.690625 -3.72125 2.38125 -3.0625 2.0625 C-1.06389179 1.1654837 -1.06389179 1.1654837 0 0 Z " fill="#477090" transform="translate(509,312)"/>
<path d="M0 0 C1.32 0 2.64 0 4 0 C4 0.66 4 1.32 4 2 C2.7934375 2.37125 2.7934375 2.37125 1.5625 2.75 C-1.171081 3.72238859 -1.171081 3.72238859 -1.8125 6.125 C-1.874375 6.74375 -1.93625 7.3625 -2 8 C-2.125 5.125 -2.125 5.125 -2 2 C-1.34 1.34 -0.68 0.68 0 0 Z " fill="#D9E1EA" transform="translate(689,730)"/>
<path d="M0 0 C1.98 0 3.96 0 6 0 C6 0.99 6 1.98 6 3 C3.69 3 1.38 3 -1 3 C-0.67 2.01 -0.34 1.02 0 0 Z " fill="#435066" transform="translate(317,722)"/>
<path d="M0 0 C0.66 0 1.32 0 2 0 C4.09230769 4.43076923 4.09230769 4.43076923 3.625 7.3125 C3.41875 7.869375 3.2125 8.42625 3 9 C2.71125 8.401875 2.4225 7.80375 2.125 7.1875 C0.95257974 4.80672208 0.95257974 4.80672208 -1 2 C-0.67 1.34 -0.34 0.68 0 0 Z " fill="#3C506D" transform="translate(644,621)"/>
<path d="M0 0 C-1.52708963 3.43595166 -3.59927045 6.11912454 -6 9 C-5.47731534 6.23723823 -4.89130413 3.6739124 -4 1 C-2 0 -2 0 0 0 Z " fill="#87A96D" transform="translate(531,416)"/>
<path d="M0 0 C1 3 1 3 0.22265625 4.82421875 C-0.8515625 6.54947917 -1.92578125 8.27473958 -3 10 C-3.99 9.67 -4.98 9.34 -6 9 C-4.02 6.03 -2.04 3.06 0 0 Z " fill="#92B377" transform="translate(587,402)"/>
<path d="M0 0 C4.21912747 0.4794463 6.79663178 1.16625119 10 4 C9.67 4.66 9.34 5.32 9 6 C6.03 4.35 3.06 2.7 0 1 C0 0.67 0 0.34 0 0 Z " fill="#EAF4F9" transform="translate(500,314)"/>
<path d="M0 0 C4.455 0.99 4.455 0.99 9 2 C9 2.33 9 2.66 9 3 C4.545 3.495 4.545 3.495 0 4 C-0.33 3.34 -0.66 2.68 -1 2 C-0.67 1.34 -0.34 0.68 0 0 Z " fill="#A3C376" transform="translate(593,244)"/>
<path d="M0 0 C2 3 2 3 1.625 5.6875 C1.41875 6.450625 1.2125 7.21375 1 8 C0.01 8 -0.98 8 -2 8 C-1.125 1.125 -1.125 1.125 0 0 Z " fill="#49526B" transform="translate(452,729)"/>
<path d="M0 0 C0.33 0 0.66 0 1 0 C1 2.97 1 5.94 1 9 C-2 9 -2 9 -5 7 C-3.68 6.67 -2.36 6.34 -1 6 C-0.67 4.02 -0.34 2.04 0 0 Z " fill="#606B81" transform="translate(639,722)"/>
<path d="M0 0 C1.98 0.495 1.98 0.495 4 1 C3.34 2.32 2.68 3.64 2 5 C1.01 5 0.02 5 -1 5 C-0.67 3.35 -0.34 1.7 0 0 Z " fill="#E0EBF1" transform="translate(730,709)"/>
<path d="M0 0 C0.66 0.33 1.32 0.66 2 1 C-0.97 4.96 -0.97 4.96 -4 9 C-4.33 7.68 -4.66 6.36 -5 5 C-3.6875 3.25 -3.6875 3.25 -2 2 C-1.34 2 -0.68 2 0 2 C0 1.34 0 0.68 0 0 Z " fill="#82A46B" transform="translate(604,484)"/>
<path d="M0 0 C0.33 0 0.66 0 1 0 C1.3636198 4.24223102 0.5393228 6.58168085 -2 10 C-2.66 10 -3.32 10 -4 10 C-2.8905928 6.51329166 -1.73662334 3.22515763 0 0 Z " fill="#E4F1D8" transform="translate(627,448)"/>
<path d="M0 0 C0.66 0 1.32 0 2 0 C2.1875 2.375 2.1875 2.375 2 5 C1.01 5.66 0.02 6.32 -1 7 C-1.625 5.1875 -1.625 5.1875 -2 3 C-1.34 2.01 -0.68 1.02 0 0 Z " fill="#29456D" transform="translate(509,418)"/>
<path d="M0 0 C0.66 0 1.32 0 2 0 C1.38461538 5.53846154 1.38461538 5.53846154 -0.5625 7.875 C-1.036875 8.24625 -1.51125 8.6175 -2 9 C-1.125 1.125 -1.125 1.125 0 0 Z " fill="#D0DFC7" transform="translate(525,376)"/>
<path d="M0 0 C0.95465783 2.16967689 1.14401212 3.56328793 0.3984375 5.82421875 C-0.35870385 7.5684743 -1.17609198 9.28627131 -2 11 C-2.66 11 -3.32 11 -4 11 C-3.52269162 9.5410574 -3.04308958 8.08286504 -2.5625 6.625 C-2.29566406 5.81289063 -2.02882813 5.00078125 -1.75390625 4.1640625 C-1 2 -1 2 0 0 Z " fill="#E4F2D8" transform="translate(564,354)"/>
<path d="M0 0 C2.97 0.495 2.97 0.495 6 1 C6 1.66 6 2.32 6 3 C3.69 3 1.38 3 -1 3 C-0.67 2.01 -0.34 1.02 0 0 Z " fill="#E9F1F6" transform="translate(589,730)"/>
<path d="M0 0 C2.475 0.99 2.475 0.99 5 2 C3.68 2.99 2.36 3.98 1 5 C0.01 4.34 -0.98 3.68 -2 3 C-1.34 2.01 -0.68 1.02 0 0 Z " fill="#2E477B" transform="translate(629,665)"/>
<path d="M0 0 C0.99 0.33 1.98 0.66 3 1 C2.67 2.32 2.34 3.64 2 5 C0.68 5 -0.64 5 -2 5 C-1.34 3.35 -0.68 1.7 0 0 Z " fill="#72A757" transform="translate(553,448)"/>
<path d="M0 0 C0.33 0.99 0.66 1.98 1 3 C-2.26760563 8.63380282 -2.26760563 8.63380282 -5 10 C-3.66511872 6.40608886 -2.03977277 3.24509304 0 0 Z " fill="#E8F6E0" transform="translate(543,397)"/>
<path d="M0 0 C3.68802044 1.22934015 4.72356973 2.93859378 7 6 C6.01 6.33 5.02 6.66 4 7 C0 2.25 0 2.25 0 0 Z " fill="#D0D8E4" transform="translate(401,391)"/>
<path d="M0 0 C0 0.66 0 1.32 0 2 C-1.53125 3.2890625 -1.53125 3.2890625 -3.5 4.625 C-4.1496875 5.07101562 -4.799375 5.51703125 -5.46875 5.9765625 C-5.9740625 6.31429688 -6.479375 6.65203125 -7 7 C-6.2421875 3.21875 -6.2421875 3.21875 -4.0625 1.25 C-2 0 -2 0 0 0 Z " fill="#455577" transform="translate(409,370)"/>
<path d="M0 0 C0.66 0.33 1.32 0.66 2 1 C1.01 2.485 1.01 2.485 0 4 C-3.625 4.6875 -3.625 4.6875 -7 5 C-7 4.34 -7 3.68 -7 3 C-4.69631264 1.93347808 -2.35981813 0.93578995 0 0 Z " fill="#DFE7D3" transform="translate(520,356)"/>
<path d="M0 0 C1.32 0.66 2.64 1.32 4 2 C-1.75 6 -1.75 6 -4 6 C-4 5.34 -4 4.68 -4 4 C-3.01 4 -2.02 4 -1 4 C-0.67 2.68 -0.34 1.36 0 0 Z " fill="#99BA66" transform="translate(600,276)"/>
<path d="M0 0 C0.99 0 1.98 0 3 0 C3.33 2.31 3.66 4.62 4 7 C3.34 6.67 2.68 6.34 2 6 C2 5.01 2 4.02 2 3 C1.34 3 0.68 3 0 3 C0 2.01 0 1.02 0 0 Z " fill="#30405D" transform="translate(710,728)"/>
<path d="M0 0 C1.9375 0.8125 1.9375 0.8125 4 2 C4.33 2.99 4.66 3.98 5 5 C4.01 5.33 3.02 5.66 2 6 C0 3 0 3 0 0 Z " fill="#48556A" transform="translate(340,728)"/>
<path d="M0 0 C0.66 0.99 1.32 1.98 2 3 C3.32 3 4.64 3 6 3 C6 3.66 6 4.32 6 5 C3.69 5.33 1.38 5.66 -1 6 C-0.67 4.02 -0.34 2.04 0 0 Z " fill="#52688B" transform="translate(728,683)"/>
<path d="M0 0 C-1.39332574 3.36720387 -2.9789286 4.9859524 -6 7 C-6 6.01 -6 5.02 -6 4 C-5.34 4 -4.68 4 -4 4 C-4 3.01 -4 2.02 -4 1 C-2 0 -2 0 0 0 Z " fill="#84A76E" transform="translate(598,494)"/>
<path d="M0 0 C0.99 0 1.98 0 3 0 C1.63016497 3.16115776 1.0109362 3.9927092 -2 6 C-1.125 1.125 -1.125 1.125 0 0 Z " fill="#3F4863" transform="translate(473,484)"/>
<path d="M0 0 C0.33 0.66 0.66 1.32 1 2 C1.66 2.33 2.32 2.66 3 3 C0.03 5.475 0.03 5.475 -3 8 C-2.25 2.25 -2.25 2.25 0 0 Z " fill="#9EA2AB" transform="translate(460,475)"/>
<path d="M0 0 C0.66 0 1.32 0 2 0 C0.7508258 3.45925163 -0.67527795 6.14693203 -3 9 C-2.5020163 5.26512223 -2.12508244 3.18762365 0 0 Z " fill="#88A971" transform="translate(617,464)"/>
<path d="M0 0 C-0.66 1.32 -1.32 2.64 -2 4 C-2.99 4 -3.98 4 -5 4 C-5 3.01 -5 2.02 -5 1 C-3 0 -3 0 0 0 Z " fill="#3A4B67" transform="translate(498,460)"/>
<path d="M0 0 C1.8125 0.1875 1.8125 0.1875 4 1 C5.75 3.5625 5.75 3.5625 7 6 C6.01 6 5.02 6 4 6 C3.71125 5.38125 3.4225 4.7625 3.125 4.125 C2.06279958 1.86674235 2.06279958 1.86674235 0 0 Z " fill="#EBEFF7" transform="translate(422,374)"/>
<path d="M0 0 C0.66 0.33 1.32 0.66 2 1 C-0.40436026 4.60654039 -1.94679607 4.85452932 -6 6 C-4 4 -2 2 0 0 Z " fill="#D9E6F2" transform="translate(488,314)"/>
</svg>
